<svg xmlns="http://www.w3.org/2000/svg" xmlns:xlink="http://www.w3.org/1999/xlink" width="500" zoomAndPan="magnify" viewBox="0 0 375 149.999998" height="200" preserveAspectRatio="xMidYMid meet" version="1.0"><defs><g/><clipPath id="2f3de8cdb9"><path d="M 10.039062 30 L 70.34375 30 L 70.34375 122.902344 L 10.039062 122.902344 Z M 10.039062 30 " clip-rule="nonzero"/></clipPath><clipPath id="943f4030fb"><path d="M 10.039062 29 L 70.34375 29 L 70.34375 122.902344 L 10.039062 122.902344 Z M 10.039062 29 " clip-rule="nonzero"/></clipPath><clipPath id="e4a792a376"><path d="M 14 27.097656 L 16 27.097656 L 16 36 L 14 36 Z M 14 27.097656 " clip-rule="nonzero"/></clipPath><clipPath id="e11652f67f"><path d="M 14 27.097656 L 17 27.097656 L 17 36 L 14 36 Z M 14 27.097656 " clip-rule="nonzero"/></clipPath><clipPath id="818ed26b87"><path d="M 16 27.097656 L 18 27.097656 L 18 36 L 16 36 Z M 16 27.097656 " clip-rule="nonzero"/></clipPath><clipPath id="f9af8eec61"><path d="M 15 27.097656 L 18 27.097656 L 18 36 L 15 36 Z M 15 27.097656 " clip-rule="nonzero"/></clipPath><clipPath id="ac41880ff0"><path d="M 22 27.097656 L 24 27.097656 L 24 36 L 22 36 Z M 22 27.097656 " clip-rule="nonzero"/></clipPath><clipPath id="e9c9352843"><path d="M 22 27.097656 L 25 27.097656 L 25 36 L 22 36 Z M 22 27.097656 " clip-rule="nonzero"/></clipPath><clipPath id="be1e3082cb"><path d="M 24 27.097656 L 26 27.097656 L 26 36 L 24 36 Z M 24 27.097656 " clip-rule="nonzero"/></clipPath><clipPath id="49327b3926"><path d="M 23 27.097656 L 26 27.097656 L 26 36 L 23 36 Z M 23 27.097656 " clip-rule="nonzero"/></clipPath><clipPath id="1bd7f4c6bb"><path d="M 30 27.097656 L 32 27.097656 L 32 36 L 30 36 Z M 30 27.097656 " clip-rule="nonzero"/></clipPath><clipPath id="9df99f7c4c"><path d="M 30 27.097656 L 33 27.097656 L 33 36 L 30 36 Z M 30 27.097656 " clip-rule="nonzero"/></clipPath><clipPath id="189192e40c"><path d="M 32 27.097656 L 34 27.097656 L 34 36 L 32 36 Z M 32 27.097656 " clip-rule="nonzero"/></clipPath><clipPath id="912e5ccd15"><path d="M 31 27.097656 L 34 27.097656 L 34 36 L 31 36 Z M 31 27.097656 " clip-rule="nonzero"/></clipPath><clipPath id="1fd1fac141"><path d="M 38 27.097656 L 40 27.097656 L 40 36 L 38 36 Z M 38 27.097656 " clip-rule="nonzero"/></clipPath><clipPath id="b52357956b"><path d="M 38 27.097656 L 41 27.097656 L 41 36 L 38 36 Z M 38 27.097656 " clip-rule="nonzero"/></clipPath><clipPath id="4418f8f894"><path d="M 40 27.097656 L 42 27.097656 L 42 36 L 40 36 Z M 40 27.097656 " clip-rule="nonzero"/></clipPath><clipPath id="406430d3a6"><path d="M 39 27.097656 L 42 27.097656 L 42 36 L 39 36 Z M 39 27.097656 " clip-rule="nonzero"/></clipPath><clipPath id="634dd3f07d"><path d="M 46 27.097656 L 48 27.097656 L 48 36 L 46 36 Z M 46 27.097656 " clip-rule="nonzero"/></clipPath><clipPath id="7d7dd0b31d"><path d="M 45 27.097656 L 48 27.097656 L 48 36 L 45 36 Z M 45 27.097656 " clip-rule="nonzero"/></clipPath><clipPath id="f43b5297a9"><path d="M 47 27.097656 L 49 27.097656 L 49 36 L 47 36 Z M 47 27.097656 " clip-rule="nonzero"/></clipPath><clipPath id="890bdce1f4"><path d="M 47 27.097656 L 50 27.097656 L 50 36 L 47 36 Z M 47 27.097656 " clip-rule="nonzero"/></clipPath><clipPath id="a1684c8f6f"><path d="M 54 27.097656 L 56 27.097656 L 56 36 L 54 36 Z M 54 27.097656 " clip-rule="nonzero"/></clipPath><clipPath id="3628c4c594"><path d="M 53 27.097656 L 56 27.097656 L 56 36 L 53 36 Z M 53 27.097656 " clip-rule="nonzero"/></clipPath><clipPath id="bbeaaa83e7"><path d="M 55 27.097656 L 57 27.097656 L 57 36 L 55 36 Z M 55 27.097656 " clip-rule="nonzero"/></clipPath><clipPath id="6c8ea5f049"><path d="M 55 27.097656 L 58 27.097656 L 58 36 L 55 36 Z M 55 27.097656 " clip-rule="nonzero"/></clipPath><clipPath id="d6595d45de"><path d="M 62 27.097656 L 64 27.097656 L 64 36 L 62 36 Z M 62 27.097656 " clip-rule="nonzero"/></clipPath><clipPath id="087b048c46"><path d="M 61 27.097656 L 64 27.097656 L 64 36 L 61 36 Z M 61 27.097656 " clip-rule="nonzero"/></clipPath><clipPath id="60f999e8ee"><path d="M 63 27.097656 L 65 27.097656 L 65 36 L 63 36 Z M 63 27.097656 " clip-rule="nonzero"/></clipPath><clipPath id="25b4f2b9b5"><path d="M 63 27.097656 L 66 27.097656 L 66 36 L 63 36 Z M 63 27.097656 " clip-rule="nonzero"/></clipPath><clipPath id="f1936c8b35"><path d="M 9.140625 26.195312 L 71.238281 26.195312 L 71.238281 123.695312 L 9.140625 123.695312 Z M 9.140625 26.195312 " clip-rule="nonzero"/></clipPath></defs><g clip-path="url(#2f3de8cdb9)"><path fill="#ffffff" d="M 70.332031 118.25 C 70.332031 120.804688 68.308594 122.878906 65.808594 122.878906 L 14.539062 122.878906 C 12.039062 122.878906 10.015625 120.804688 10.015625 118.25 L 10.015625 35.398438 C 10.015625 32.839844 12.039062 30.765625 14.539062 30.765625 L 65.808594 30.765625 C 68.308594 30.765625 70.332031 32.839844 70.332031 35.398438 L 70.332031 118.25 " fill-opacity="1" fill-rule="nonzero"/></g><g clip-path="url(#943f4030fb)"><path fill="#c1ff72" d="M 70.332031 118.25 L 69.445312 118.25 C 69.445312 119.292969 69.035156 120.226562 68.375 120.902344 C 67.710938 121.582031 66.8125 121.992188 65.808594 121.992188 L 14.539062 121.992188 C 13.539062 121.992188 12.636719 121.582031 11.976562 120.902344 C 11.3125 120.226562 10.902344 119.292969 10.902344 118.25 L 10.902344 35.398438 C 10.902344 34.355469 11.3125 33.421875 11.976562 32.742188 C 12.636719 32.066406 13.539062 31.652344 14.539062 31.652344 L 65.808594 31.652344 C 66.8125 31.652344 67.710938 32.066406 68.375 32.742188 C 69.035156 33.421875 69.445312 34.355469 69.445312 35.398438 L 69.445312 118.25 L 71.21875 118.25 L 71.21875 35.398438 C 71.21875 33.882812 70.617188 32.5 69.640625 31.503906 C 68.667969 30.503906 67.308594 29.878906 65.808594 29.878906 L 14.539062 29.878906 C 13.042969 29.878906 11.679688 30.503906 10.707031 31.503906 C 9.730469 32.5 9.128906 33.882812 9.128906 35.398438 L 9.128906 118.25 C 9.128906 119.761719 9.730469 121.144531 10.707031 122.140625 C 11.679688 123.140625 13.042969 123.765625 14.539062 123.765625 L 65.808594 123.765625 C 67.308594 123.765625 68.667969 123.140625 69.640625 122.140625 C 70.617188 121.144531 71.21875 119.761719 71.21875 118.25 L 70.332031 118.25 " fill-opacity="1" fill-rule="nonzero"/></g><path fill="#ffffff" d="M 18.4375 35.734375 C 18.4375 36.992188 17.421875 38.011719 16.164062 38.011719 C 14.90625 38.011719 13.886719 36.992188 13.886719 35.734375 C 13.886719 34.476562 14.90625 33.457031 16.164062 33.457031 C 17.421875 33.457031 18.4375 34.476562 18.4375 35.734375 " fill-opacity="1" fill-rule="nonzero"/><path fill="#c1ff72" d="M 18.4375 35.734375 L 17.550781 35.734375 C 17.550781 36.121094 17.398438 36.460938 17.144531 36.71875 C 16.890625 36.96875 16.550781 37.125 16.164062 37.125 C 15.777344 37.125 15.433594 36.96875 15.179688 36.71875 C 14.925781 36.460938 14.773438 36.121094 14.773438 35.734375 C 14.773438 35.347656 14.925781 35.007812 15.179688 34.75 C 15.433594 34.5 15.777344 34.34375 16.164062 34.34375 C 16.550781 34.34375 16.890625 34.5 17.148438 34.75 C 17.398438 35.003906 17.550781 35.347656 17.550781 35.734375 L 19.324219 35.734375 C 19.324219 34.863281 18.96875 34.066406 18.398438 33.5 C 17.828125 32.925781 17.03125 32.570312 16.164062 32.570312 C 15.292969 32.570312 14.496094 32.925781 13.925781 33.5 C 13.355469 34.066406 13 34.863281 13 35.734375 C 13 36.605469 13.355469 37.402344 13.925781 37.96875 C 14.496094 38.542969 15.292969 38.898438 16.164062 38.898438 C 17.035156 38.898438 17.828125 38.542969 18.398438 37.96875 C 18.96875 37.402344 19.324219 36.605469 19.324219 35.734375 L 18.4375 35.734375 " fill-opacity="1" fill-rule="nonzero"/><path fill="#ffffff" d="M 26.304688 35.734375 C 26.304688 36.992188 25.285156 38.011719 24.027344 38.011719 C 22.769531 38.011719 21.753906 36.992188 21.753906 35.734375 C 21.753906 34.476562 22.769531 33.457031 24.027344 33.457031 C 25.285156 33.457031 26.304688 34.476562 26.304688 35.734375 " fill-opacity="1" fill-rule="nonzero"/><path fill="#c1ff72" d="M 26.304688 35.734375 L 25.421875 35.734375 C 25.417969 36.121094 25.265625 36.460938 25.011719 36.71875 C 24.757812 36.96875 24.414062 37.125 24.027344 37.125 C 23.640625 37.125 23.300781 36.96875 23.046875 36.71875 C 22.792969 36.460938 22.636719 36.121094 22.636719 35.734375 C 22.636719 35.347656 22.792969 35.003906 23.046875 34.75 C 23.300781 34.5 23.640625 34.34375 24.027344 34.34375 C 24.417969 34.34375 24.757812 34.5 25.011719 34.75 C 25.265625 35.003906 25.417969 35.347656 25.421875 35.734375 L 27.191406 35.734375 C 27.191406 34.863281 26.835938 34.066406 26.265625 33.5 C 25.695312 32.925781 24.898438 32.570312 24.027344 32.570312 C 23.160156 32.570312 22.363281 32.925781 21.792969 33.5 C 21.222656 34.066406 20.867188 34.863281 20.867188 35.734375 C 20.867188 36.605469 21.222656 37.402344 21.792969 37.96875 C 22.363281 38.542969 23.160156 38.898438 24.027344 38.898438 C 24.898438 38.898438 25.695312 38.542969 26.265625 37.96875 C 26.835938 37.402344 27.191406 36.605469 27.191406 35.734375 L 26.304688 35.734375 " fill-opacity="1" fill-rule="nonzero"/><path fill="#ffffff" d="M 34.171875 35.734375 C 34.171875 36.992188 33.152344 38.011719 31.894531 38.011719 C 30.636719 38.011719 29.617188 36.992188 29.617188 35.734375 C 29.617188 34.476562 30.636719 33.457031 31.894531 33.457031 C 33.152344 33.457031 34.171875 34.476562 34.171875 35.734375 " fill-opacity="1" fill-rule="nonzero"/><path fill="#c1ff72" d="M 34.171875 35.734375 L 33.285156 35.734375 C 33.285156 36.121094 33.132812 36.460938 32.878906 36.714844 C 32.625 36.96875 32.28125 37.125 31.894531 37.125 C 31.507812 37.125 31.164062 36.96875 30.910156 36.71875 C 30.65625 36.460938 30.503906 36.121094 30.503906 35.734375 C 30.503906 35.347656 30.65625 35.003906 30.910156 34.75 C 31.164062 34.5 31.507812 34.34375 31.894531 34.34375 C 32.28125 34.34375 32.625 34.5 32.878906 34.75 C 33.132812 35.007812 33.285156 35.347656 33.285156 35.734375 L 35.058594 35.734375 C 35.058594 34.863281 34.703125 34.066406 34.132812 33.5 C 33.5625 32.925781 32.765625 32.570312 31.894531 32.570312 C 31.023438 32.570312 30.226562 32.925781 29.65625 33.5 C 29.085938 34.066406 28.730469 34.863281 28.734375 35.734375 C 28.730469 36.605469 29.089844 37.402344 29.65625 37.96875 C 30.226562 38.542969 31.023438 38.898438 31.894531 38.898438 C 32.765625 38.898438 33.5625 38.542969 34.132812 37.96875 C 34.703125 37.402344 35.058594 36.605469 35.058594 35.734375 L 34.171875 35.734375 " fill-opacity="1" fill-rule="nonzero"/><path fill="#ffffff" d="M 42.039062 35.734375 C 42.039062 36.992188 41.019531 38.011719 39.761719 38.011719 C 38.503906 38.011719 37.484375 36.992188 37.484375 35.734375 C 37.484375 34.476562 38.503906 33.457031 39.761719 33.457031 C 41.019531 33.457031 42.039062 34.476562 42.039062 35.734375 " fill-opacity="1" fill-rule="nonzero"/><path fill="#c1ff72" d="M 42.039062 35.734375 L 41.152344 35.734375 C 41.152344 36.121094 41 36.460938 40.746094 36.714844 C 40.488281 36.96875 40.148438 37.125 39.761719 37.125 C 39.375 37.125 39.03125 36.96875 38.777344 36.71875 C 38.523438 36.460938 38.371094 36.121094 38.367188 35.734375 C 38.371094 35.347656 38.523438 35.007812 38.777344 34.75 C 39.03125 34.5 39.375 34.34375 39.761719 34.34375 C 40.148438 34.34375 40.488281 34.5 40.746094 34.753906 C 40.996094 35.007812 41.152344 35.347656 41.152344 35.734375 L 42.921875 35.734375 C 42.925781 34.863281 42.570312 34.066406 41.996094 33.5 C 41.425781 32.925781 40.628906 32.570312 39.761719 32.570312 C 38.890625 32.570312 38.09375 32.925781 37.523438 33.5 C 36.953125 34.066406 36.597656 34.863281 36.597656 35.734375 C 36.597656 36.605469 36.953125 37.402344 37.523438 37.96875 C 38.09375 38.542969 38.890625 38.898438 39.761719 38.898438 C 40.628906 38.898438 41.429688 38.542969 41.996094 37.96875 C 42.570312 37.402344 42.921875 36.605469 42.921875 35.734375 L 42.039062 35.734375 " fill-opacity="1" fill-rule="nonzero"/><path fill="#ffffff" d="M 49.90625 35.734375 C 49.90625 36.992188 48.886719 38.011719 47.625 38.011719 C 46.367188 38.011719 45.347656 36.992188 45.347656 35.734375 C 45.347656 34.476562 46.367188 33.457031 47.625 33.457031 C 48.886719 33.457031 49.90625 34.476562 49.90625 35.734375 " fill-opacity="1" fill-rule="nonzero"/><path fill="#c1ff72" d="M 49.90625 35.734375 L 49.019531 35.734375 C 49.015625 36.121094 48.863281 36.460938 48.609375 36.714844 C 48.355469 36.96875 48.015625 37.125 47.625 37.125 C 47.238281 37.125 46.898438 36.96875 46.640625 36.71875 C 46.390625 36.460938 46.238281 36.121094 46.234375 35.734375 C 46.238281 35.347656 46.390625 35.007812 46.640625 34.75 C 46.898438 34.5 47.238281 34.34375 47.625 34.34375 C 48.015625 34.34375 48.355469 34.5 48.609375 34.75 C 48.863281 35.007812 49.015625 35.347656 49.019531 35.734375 L 50.789062 35.734375 C 50.789062 34.863281 50.433594 34.066406 49.863281 33.5 C 49.292969 32.925781 48.496094 32.570312 47.625 32.570312 C 46.757812 32.570312 45.960938 32.925781 45.390625 33.5 C 44.820312 34.066406 44.464844 34.863281 44.464844 35.734375 C 44.464844 36.605469 44.820312 37.402344 45.390625 37.96875 C 45.960938 38.542969 46.753906 38.898438 47.625 38.898438 C 48.496094 38.898438 49.292969 38.542969 49.863281 37.96875 C 50.433594 37.402344 50.789062 36.605469 50.789062 35.734375 L 49.90625 35.734375 " fill-opacity="1" fill-rule="nonzero"/><path fill="#ffffff" d="M 57.769531 35.734375 C 57.769531 36.992188 56.75 38.011719 55.492188 38.011719 C 54.234375 38.011719 53.214844 36.992188 53.214844 35.734375 C 53.214844 34.476562 54.234375 33.457031 55.492188 33.457031 C 56.75 33.457031 57.769531 34.476562 57.769531 35.734375 " fill-opacity="1" fill-rule="nonzero"/><path fill="#c1ff72" d="M 57.769531 35.734375 L 56.882812 35.734375 C 56.882812 36.121094 56.726562 36.460938 56.476562 36.71875 C 56.21875 36.96875 55.878906 37.125 55.492188 37.125 C 55.105469 37.125 54.761719 36.96875 54.507812 36.71875 C 54.257812 36.460938 54.101562 36.121094 54.101562 35.734375 C 54.101562 35.347656 54.257812 35.003906 54.507812 34.75 C 54.761719 34.5 55.105469 34.34375 55.492188 34.34375 C 55.878906 34.34375 56.222656 34.5 56.476562 34.75 C 56.726562 35.007812 56.882812 35.347656 56.882812 35.734375 L 58.65625 35.734375 C 58.65625 34.863281 58.300781 34.066406 57.726562 33.5 C 57.160156 32.925781 56.363281 32.570312 55.492188 32.570312 C 54.621094 32.570312 53.824219 32.925781 53.257812 33.5 C 52.683594 34.066406 52.332031 34.863281 52.332031 35.734375 C 52.332031 36.605469 52.683594 37.402344 53.257812 37.96875 C 53.824219 38.542969 54.621094 38.898438 55.492188 38.898438 C 56.363281 38.898438 57.160156 38.542969 57.726562 37.96875 C 58.300781 37.402344 58.65625 36.605469 58.65625 35.734375 L 57.769531 35.734375 " fill-opacity="1" fill-rule="nonzero"/><path fill="#ffffff" d="M 65.636719 35.734375 C 65.636719 36.992188 64.617188 38.011719 63.355469 38.011719 C 62.101562 38.011719 61.082031 36.992188 61.082031 35.734375 C 61.082031 34.476562 62.101562 33.457031 63.355469 33.457031 C 64.617188 33.457031 65.636719 34.476562 65.636719 35.734375 " fill-opacity="1" fill-rule="nonzero"/><path fill="#c1ff72" d="M 65.636719 35.734375 L 64.75 35.734375 C 64.75 36.121094 64.59375 36.460938 64.34375 36.714844 C 64.085938 36.96875 63.746094 37.125 63.355469 37.125 C 62.96875 37.125 62.628906 36.96875 62.375 36.71875 C 62.121094 36.460938 61.96875 36.121094 61.96875 35.734375 C 61.96875 35.347656 62.121094 35.007812 62.375 34.75 C 62.628906 34.5 62.96875 34.34375 63.355469 34.34375 C 63.746094 34.34375 64.085938 34.5 64.34375 34.75 C 64.59375 35.007812 64.75 35.347656 64.75 35.734375 L 66.519531 35.734375 C 66.519531 34.863281 66.164062 34.066406 65.59375 33.5 C 65.023438 32.925781 64.226562 32.570312 63.355469 32.570312 C 62.488281 32.570312 61.691406 32.925781 61.121094 33.5 C 60.550781 34.066406 60.195312 34.863281 60.195312 35.734375 C 60.195312 36.605469 60.550781 37.402344 61.121094 37.96875 C 61.691406 38.542969 62.484375 38.898438 63.355469 38.898438 C 64.226562 38.898438 65.023438 38.542969 65.59375 37.96875 C 66.164062 37.402344 66.519531 36.605469 66.519531 35.734375 L 65.636719 35.734375 " fill-opacity="1" fill-rule="nonzero"/><g clip-path="url(#e4a792a376)"><path fill="#ffffff" d="M 15.835938 34.613281 C 15.835938 34.917969 15.605469 35.164062 15.324219 35.164062 C 15.046875 35.164062 14.816406 34.917969 14.816406 34.613281 L 14.816406 27.226562 C 14.816406 26.921875 15.046875 26.675781 15.324219 26.675781 C 15.605469 26.675781 15.835938 26.921875 15.835938 27.226562 L 15.835938 34.613281 " fill-opacity="1" fill-rule="nonzero"/></g><g clip-path="url(#e11652f67f)"><path fill="#c1ff72" d="M 15.835938 34.613281 L 15.390625 34.613281 C 15.390625 34.65625 15.375 34.683594 15.359375 34.703125 L 15.324219 34.722656 L 15.289062 34.703125 C 15.277344 34.6875 15.257812 34.65625 15.257812 34.613281 L 15.257812 27.226562 C 15.257812 27.1875 15.273438 27.15625 15.289062 27.140625 L 15.324219 27.121094 L 15.359375 27.140625 C 15.375 27.15625 15.390625 27.1875 15.390625 27.226562 L 15.390625 34.613281 L 16.277344 34.613281 L 16.277344 27.226562 C 16.277344 26.964844 16.179688 26.71875 16.007812 26.539062 C 15.84375 26.355469 15.597656 26.234375 15.324219 26.234375 C 15.054688 26.234375 14.808594 26.355469 14.640625 26.539062 C 14.472656 26.71875 14.375 26.964844 14.375 27.226562 L 14.375 34.613281 C 14.375 34.878906 14.472656 35.125 14.640625 35.304688 C 14.808594 35.488281 15.054688 35.609375 15.324219 35.605469 C 15.59375 35.609375 15.84375 35.488281 16.007812 35.304688 C 16.179688 35.125 16.277344 34.878906 16.277344 34.613281 L 15.835938 34.613281 " fill-opacity="1" fill-rule="nonzero"/></g><g clip-path="url(#818ed26b87)"><path fill="#ffffff" d="M 17.421875 34.613281 C 17.421875 34.917969 17.191406 35.164062 16.914062 35.164062 C 16.632812 35.164062 16.40625 34.917969 16.40625 34.613281 L 16.40625 27.226562 C 16.40625 26.921875 16.632812 26.675781 16.914062 26.675781 C 17.191406 26.675781 17.421875 26.921875 17.421875 27.226562 L 17.421875 34.613281 " fill-opacity="1" fill-rule="nonzero"/></g><g clip-path="url(#f9af8eec61)"><path fill="#c1ff72" d="M 17.421875 34.613281 L 16.976562 34.613281 C 16.976562 34.65625 16.960938 34.6875 16.945312 34.703125 L 16.914062 34.722656 L 16.878906 34.703125 C 16.863281 34.6875 16.847656 34.65625 16.847656 34.613281 L 16.847656 27.226562 C 16.847656 27.1875 16.863281 27.15625 16.878906 27.140625 L 16.914062 27.121094 L 16.945312 27.136719 C 16.960938 27.15625 16.976562 27.1875 16.976562 27.226562 L 16.976562 34.613281 L 17.863281 34.613281 L 17.863281 27.226562 C 17.863281 26.964844 17.765625 26.722656 17.597656 26.539062 C 17.429688 26.355469 17.183594 26.234375 16.914062 26.234375 C 16.640625 26.234375 16.394531 26.355469 16.226562 26.539062 C 16.058594 26.722656 15.960938 26.964844 15.960938 27.226562 L 15.960938 34.613281 C 15.960938 34.875 16.058594 35.121094 16.230469 35.304688 C 16.394531 35.488281 16.644531 35.609375 16.914062 35.605469 C 17.183594 35.609375 17.429688 35.484375 17.597656 35.304688 C 17.765625 35.121094 17.863281 34.878906 17.863281 34.613281 L 17.421875 34.613281 " fill-opacity="1" fill-rule="nonzero"/></g><g clip-path="url(#ac41880ff0)"><path fill="#ffffff" d="M 23.742188 34.613281 C 23.742188 34.917969 23.515625 35.164062 23.234375 35.164062 C 22.953125 35.164062 22.726562 34.917969 22.726562 34.613281 L 22.726562 27.226562 C 22.726562 26.921875 22.953125 26.675781 23.234375 26.675781 C 23.515625 26.675781 23.742188 26.921875 23.742188 27.226562 L 23.742188 34.613281 " fill-opacity="1" fill-rule="nonzero"/></g><g clip-path="url(#e9c9352843)"><path fill="#c1ff72" d="M 23.742188 34.613281 L 23.300781 34.613281 C 23.300781 34.65625 23.285156 34.6875 23.269531 34.703125 L 23.234375 34.722656 L 23.203125 34.703125 C 23.1875 34.6875 23.171875 34.65625 23.171875 34.613281 L 23.171875 27.226562 C 23.171875 27.1875 23.1875 27.15625 23.203125 27.136719 L 23.234375 27.121094 L 23.269531 27.136719 C 23.285156 27.15625 23.300781 27.1875 23.300781 27.226562 L 23.300781 34.613281 L 24.1875 34.613281 L 24.1875 27.226562 C 24.1875 26.964844 24.089844 26.71875 23.921875 26.539062 C 23.753906 26.355469 23.507812 26.234375 23.234375 26.234375 C 22.964844 26.234375 22.71875 26.355469 22.550781 26.539062 C 22.382812 26.722656 22.285156 26.964844 22.285156 27.226562 L 22.285156 34.613281 C 22.285156 34.875 22.382812 35.121094 22.550781 35.304688 C 22.71875 35.488281 22.964844 35.609375 23.234375 35.605469 C 23.507812 35.609375 23.753906 35.488281 23.917969 35.304688 C 24.089844 35.121094 24.1875 34.878906 24.1875 34.613281 L 23.742188 34.613281 " fill-opacity="1" fill-rule="nonzero"/></g><g clip-path="url(#be1e3082cb)"><path fill="#ffffff" d="M 25.332031 34.613281 C 25.332031 34.917969 25.101562 35.164062 24.824219 35.164062 C 24.542969 35.164062 24.3125 34.917969 24.3125 34.613281 L 24.3125 27.226562 C 24.3125 26.921875 24.542969 26.675781 24.824219 26.675781 C 25.101562 26.675781 25.332031 26.921875 25.332031 27.226562 L 25.332031 34.613281 " fill-opacity="1" fill-rule="nonzero"/></g><g clip-path="url(#49327b3926)"><path fill="#c1ff72" d="M 25.332031 34.613281 L 24.886719 34.613281 C 24.886719 34.65625 24.871094 34.683594 24.855469 34.703125 L 24.824219 34.722656 L 24.789062 34.703125 C 24.773438 34.683594 24.757812 34.65625 24.757812 34.613281 L 24.757812 27.226562 C 24.757812 27.1875 24.773438 27.15625 24.789062 27.140625 L 24.824219 27.121094 L 24.855469 27.140625 C 24.871094 27.15625 24.886719 27.1875 24.886719 27.226562 L 24.886719 34.613281 L 25.773438 34.613281 L 25.773438 27.226562 C 25.773438 26.964844 25.675781 26.71875 25.507812 26.539062 C 25.339844 26.355469 25.09375 26.234375 24.824219 26.234375 C 24.550781 26.234375 24.304688 26.355469 24.136719 26.539062 C 23.96875 26.71875 23.871094 26.964844 23.871094 27.226562 L 23.871094 34.613281 C 23.871094 34.878906 23.96875 35.125 24.140625 35.304688 C 24.304688 35.488281 24.550781 35.609375 24.824219 35.605469 C 25.09375 35.609375 25.339844 35.484375 25.507812 35.304688 C 25.675781 35.125 25.773438 34.878906 25.773438 34.613281 L 25.332031 34.613281 " fill-opacity="1" fill-rule="nonzero"/></g><g clip-path="url(#1bd7f4c6bb)"><path fill="#ffffff" d="M 31.609375 34.613281 C 31.609375 34.917969 31.382812 35.164062 31.101562 35.164062 C 30.820312 35.164062 30.59375 34.917969 30.59375 34.613281 L 30.59375 27.226562 C 30.59375 26.921875 30.820312 26.675781 31.101562 26.675781 C 31.382812 26.675781 31.609375 26.921875 31.609375 27.226562 L 31.609375 34.613281 " fill-opacity="1" fill-rule="nonzero"/></g><g clip-path="url(#9df99f7c4c)"><path fill="#c1ff72" d="M 31.609375 34.613281 L 31.164062 34.613281 C 31.164062 34.65625 31.148438 34.6875 31.132812 34.703125 L 31.101562 34.722656 L 31.066406 34.703125 C 31.050781 34.6875 31.035156 34.65625 31.035156 34.613281 L 31.035156 27.226562 C 31.035156 27.1875 31.050781 27.15625 31.066406 27.140625 L 31.101562 27.121094 L 31.132812 27.136719 C 31.148438 27.15625 31.164062 27.1875 31.164062 27.226562 L 31.164062 34.613281 L 32.050781 34.613281 L 32.050781 27.226562 C 32.050781 26.964844 31.953125 26.722656 31.785156 26.539062 C 31.621094 26.355469 31.375 26.234375 31.101562 26.234375 C 30.828125 26.234375 30.582031 26.355469 30.414062 26.539062 C 30.25 26.722656 30.152344 26.964844 30.152344 27.226562 L 30.152344 34.613281 C 30.152344 34.875 30.25 35.121094 30.417969 35.304688 C 30.585938 35.488281 30.832031 35.609375 31.101562 35.605469 C 31.375 35.609375 31.621094 35.484375 31.785156 35.304688 C 31.953125 35.121094 32.050781 34.875 32.050781 34.613281 L 31.609375 34.613281 " fill-opacity="1" fill-rule="nonzero"/></g><g clip-path="url(#189192e40c)"><path fill="#ffffff" d="M 33.195312 34.613281 C 33.195312 34.917969 32.96875 35.164062 32.6875 35.164062 C 32.40625 35.164062 32.179688 34.917969 32.179688 34.613281 L 32.179688 27.226562 C 32.179688 26.921875 32.40625 26.675781 32.6875 26.675781 C 32.96875 26.675781 33.195312 26.921875 33.195312 27.226562 L 33.195312 34.613281 " fill-opacity="1" fill-rule="nonzero"/></g><g clip-path="url(#912e5ccd15)"><path fill="#c1ff72" d="M 33.195312 34.613281 L 32.753906 34.613281 C 32.753906 34.65625 32.738281 34.683594 32.722656 34.703125 L 32.6875 34.722656 L 32.65625 34.703125 C 32.636719 34.6875 32.625 34.65625 32.625 34.613281 L 32.625 27.226562 C 32.625 27.1875 32.636719 27.15625 32.65625 27.136719 L 32.6875 27.121094 L 32.722656 27.140625 C 32.738281 27.15625 32.753906 27.1875 32.753906 27.226562 L 32.753906 34.613281 L 33.640625 34.613281 L 33.640625 27.226562 C 33.640625 26.964844 33.539062 26.71875 33.371094 26.539062 C 33.207031 26.355469 32.960938 26.234375 32.6875 26.234375 C 32.414062 26.234375 32.167969 26.355469 32.003906 26.539062 C 31.835938 26.722656 31.738281 26.964844 31.738281 27.226562 L 31.738281 34.613281 C 31.738281 34.875 31.835938 35.121094 32.003906 35.304688 C 32.171875 35.488281 32.417969 35.609375 32.6875 35.605469 C 32.960938 35.609375 33.203125 35.488281 33.371094 35.304688 C 33.539062 35.125 33.640625 34.878906 33.640625 34.613281 L 33.195312 34.613281 " fill-opacity="1" fill-rule="nonzero"/></g><g clip-path="url(#1fd1fac141)"><path fill="#ffffff" d="M 39.636719 34.613281 C 39.636719 34.917969 39.410156 35.164062 39.128906 35.164062 C 38.851562 35.164062 38.625 34.917969 38.625 34.613281 L 38.625 27.226562 C 38.625 26.921875 38.851562 26.675781 39.128906 26.675781 C 39.410156 26.675781 39.636719 26.921875 39.636719 27.226562 L 39.636719 34.613281 " fill-opacity="1" fill-rule="nonzero"/></g><g clip-path="url(#b52357956b)"><path fill="#c1ff72" d="M 39.636719 34.613281 L 39.195312 34.613281 C 39.195312 34.65625 39.179688 34.6875 39.164062 34.703125 L 39.128906 34.722656 L 39.097656 34.703125 C 39.082031 34.6875 39.066406 34.65625 39.066406 34.613281 L 39.066406 27.226562 C 39.066406 27.1875 39.082031 27.15625 39.097656 27.136719 L 39.128906 27.121094 L 39.164062 27.136719 C 39.179688 27.15625 39.195312 27.1875 39.195312 27.226562 L 39.195312 34.613281 L 40.082031 34.613281 L 40.082031 27.226562 C 40.082031 26.964844 39.984375 26.722656 39.816406 26.539062 C 39.648438 26.355469 39.402344 26.234375 39.128906 26.234375 C 38.859375 26.234375 38.613281 26.355469 38.445312 26.539062 C 38.277344 26.722656 38.179688 26.964844 38.179688 27.226562 L 38.179688 34.613281 C 38.179688 34.875 38.277344 35.121094 38.445312 35.304688 C 38.613281 35.484375 38.859375 35.609375 39.128906 35.605469 C 39.402344 35.609375 39.648438 35.488281 39.8125 35.304688 C 39.984375 35.121094 40.082031 34.875 40.082031 34.613281 L 39.636719 34.613281 " fill-opacity="1" fill-rule="nonzero"/></g><g clip-path="url(#4418f8f894)"><path fill="#ffffff" d="M 41.226562 34.613281 C 41.226562 34.917969 40.996094 35.164062 40.71875 35.164062 C 40.4375 35.164062 40.210938 34.917969 40.210938 34.613281 L 40.210938 27.226562 C 40.210938 26.921875 40.4375 26.675781 40.71875 26.675781 C 40.996094 26.675781 41.226562 26.921875 41.226562 27.226562 L 41.226562 34.613281 " fill-opacity="1" fill-rule="nonzero"/></g><g clip-path="url(#406430d3a6)"><path fill="#c1ff72" d="M 41.226562 34.613281 L 40.78125 34.613281 C 40.78125 34.65625 40.765625 34.6875 40.75 34.703125 L 40.71875 34.722656 L 40.683594 34.703125 C 40.667969 34.683594 40.652344 34.65625 40.652344 34.613281 L 40.652344 27.226562 C 40.652344 27.1875 40.667969 27.15625 40.683594 27.140625 L 40.71875 27.121094 L 40.75 27.140625 C 40.765625 27.15625 40.78125 27.1875 40.78125 27.226562 L 40.78125 34.613281 L 41.667969 34.613281 L 41.667969 27.226562 C 41.667969 26.964844 41.570312 26.71875 41.402344 26.539062 C 41.234375 26.355469 40.988281 26.234375 40.71875 26.234375 C 40.445312 26.234375 40.199219 26.355469 40.035156 26.539062 C 39.863281 26.71875 39.765625 26.964844 39.765625 27.226562 L 39.765625 34.613281 C 39.765625 34.878906 39.863281 35.125 40.035156 35.304688 C 40.199219 35.488281 40.445312 35.609375 40.71875 35.605469 C 40.988281 35.609375 41.234375 35.484375 41.402344 35.304688 C 41.570312 35.125 41.667969 34.878906 41.667969 34.613281 L 41.226562 34.613281 " fill-opacity="1" fill-rule="nonzero"/></g><g clip-path="url(#634dd3f07d)"><path fill="#ffffff" d="M 47.339844 34.613281 C 47.339844 34.917969 47.113281 35.164062 46.832031 35.164062 C 46.550781 35.164062 46.328125 34.917969 46.328125 34.613281 L 46.328125 27.226562 C 46.328125 26.921875 46.550781 26.675781 46.832031 26.675781 C 47.113281 26.675781 47.339844 26.921875 47.339844 27.226562 L 47.339844 34.613281 " fill-opacity="1" fill-rule="nonzero"/></g><g clip-path="url(#7d7dd0b31d)"><path fill="#c1ff72" d="M 47.339844 34.613281 L 46.898438 34.613281 C 46.898438 34.65625 46.882812 34.6875 46.867188 34.703125 L 46.832031 34.722656 L 46.800781 34.703125 C 46.785156 34.6875 46.769531 34.65625 46.769531 34.613281 L 46.769531 27.226562 C 46.769531 27.1875 46.785156 27.15625 46.800781 27.136719 L 46.832031 27.121094 L 46.867188 27.140625 C 46.882812 27.15625 46.898438 27.1875 46.898438 27.226562 L 46.898438 34.613281 L 47.785156 34.613281 L 47.785156 27.226562 C 47.785156 26.964844 47.683594 26.71875 47.519531 26.539062 C 47.351562 26.355469 47.105469 26.234375 46.832031 26.234375 C 46.5625 26.234375 46.3125 26.355469 46.148438 26.539062 C 45.980469 26.722656 45.882812 26.964844 45.882812 27.226562 L 45.882812 34.613281 C 45.882812 34.875 45.980469 35.121094 46.148438 35.304688 C 46.316406 35.484375 46.5625 35.609375 46.832031 35.605469 C 47.101562 35.609375 47.347656 35.488281 47.515625 35.304688 C 47.683594 35.125 47.785156 34.878906 47.785156 34.613281 L 47.339844 34.613281 " fill-opacity="1" fill-rule="nonzero"/></g><g clip-path="url(#f43b5297a9)"><path fill="#ffffff" d="M 48.925781 34.613281 C 48.925781 34.917969 48.699219 35.164062 48.421875 35.164062 C 48.140625 35.164062 47.914062 34.917969 47.914062 34.613281 L 47.914062 27.226562 C 47.914062 26.921875 48.140625 26.675781 48.421875 26.675781 C 48.699219 26.675781 48.925781 26.921875 48.925781 27.226562 L 48.925781 34.613281 " fill-opacity="1" fill-rule="nonzero"/></g><g clip-path="url(#890bdce1f4)"><path fill="#c1ff72" d="M 48.925781 34.613281 L 48.484375 34.613281 C 48.484375 34.65625 48.46875 34.6875 48.453125 34.703125 L 48.421875 34.722656 L 48.386719 34.703125 C 48.371094 34.683594 48.355469 34.65625 48.355469 34.613281 L 48.355469 27.226562 C 48.355469 27.1875 48.371094 27.15625 48.386719 27.140625 L 48.421875 27.121094 L 48.453125 27.140625 C 48.46875 27.15625 48.484375 27.1875 48.484375 27.226562 L 48.484375 34.613281 L 49.371094 34.613281 L 49.371094 27.226562 C 49.371094 26.964844 49.269531 26.71875 49.105469 26.539062 C 48.9375 26.355469 48.691406 26.234375 48.421875 26.234375 C 48.148438 26.234375 47.902344 26.355469 47.734375 26.539062 C 47.566406 26.71875 47.46875 26.964844 47.46875 27.226562 L 47.46875 34.613281 C 47.46875 34.878906 47.566406 35.125 47.734375 35.304688 C 47.902344 35.488281 48.148438 35.609375 48.421875 35.605469 C 48.691406 35.609375 48.9375 35.484375 49.105469 35.304688 C 49.273438 35.125 49.371094 34.878906 49.371094 34.613281 L 48.925781 34.613281 " fill-opacity="1" fill-rule="nonzero"/></g><g clip-path="url(#a1684c8f6f)"><path fill="#ffffff" d="M 55.207031 34.613281 C 55.207031 34.917969 54.976562 35.164062 54.699219 35.164062 C 54.417969 35.164062 54.191406 34.917969 54.191406 34.613281 L 54.191406 27.226562 C 54.191406 26.921875 54.417969 26.675781 54.699219 26.675781 C 54.976562 26.675781 55.207031 26.921875 55.207031 27.226562 L 55.207031 34.613281 " fill-opacity="1" fill-rule="nonzero"/></g><g clip-path="url(#3628c4c594)"><path fill="#c1ff72" d="M 55.207031 34.613281 L 54.765625 34.613281 C 54.765625 34.65625 54.746094 34.6875 54.730469 34.703125 L 54.699219 34.722656 L 54.664062 34.703125 C 54.648438 34.683594 54.632812 34.65625 54.632812 34.613281 L 54.632812 27.226562 C 54.632812 27.1875 54.648438 27.15625 54.664062 27.140625 L 54.699219 27.121094 L 54.730469 27.136719 C 54.746094 27.15625 54.765625 27.1875 54.765625 27.226562 L 54.765625 34.613281 L 55.648438 34.613281 L 55.648438 27.226562 C 55.648438 26.964844 55.550781 26.722656 55.382812 26.539062 C 55.21875 26.355469 54.972656 26.234375 54.699219 26.234375 C 54.429688 26.234375 54.179688 26.355469 54.015625 26.539062 C 53.847656 26.71875 53.746094 26.964844 53.746094 27.226562 L 53.746094 34.613281 C 53.746094 34.878906 53.847656 35.125 54.015625 35.304688 C 54.183594 35.488281 54.429688 35.609375 54.699219 35.605469 C 54.972656 35.609375 55.214844 35.484375 55.382812 35.304688 C 55.550781 35.121094 55.648438 34.878906 55.648438 34.613281 L 55.207031 34.613281 " fill-opacity="1" fill-rule="nonzero"/></g><g clip-path="url(#bbeaaa83e7)"><path fill="#ffffff" d="M 56.792969 34.613281 C 56.792969 34.917969 56.566406 35.164062 56.285156 35.164062 C 56.007812 35.164062 55.777344 34.917969 55.777344 34.613281 L 55.777344 27.226562 C 55.777344 26.921875 56.007812 26.675781 56.285156 26.675781 C 56.566406 26.675781 56.792969 26.921875 56.792969 27.226562 L 56.792969 34.613281 " fill-opacity="1" fill-rule="nonzero"/></g><g clip-path="url(#6c8ea5f049)"><path fill="#c1ff72" d="M 56.792969 34.613281 L 56.351562 34.613281 C 56.351562 34.65625 56.332031 34.6875 56.320312 34.703125 L 56.285156 34.722656 L 56.25 34.703125 C 56.234375 34.6875 56.21875 34.65625 56.21875 34.613281 L 56.21875 27.226562 C 56.21875 27.1875 56.234375 27.15625 56.253906 27.140625 L 56.285156 27.121094 L 56.320312 27.136719 C 56.332031 27.15625 56.351562 27.1875 56.351562 27.226562 L 56.351562 34.613281 L 57.234375 34.613281 L 57.234375 27.226562 C 57.234375 26.964844 57.136719 26.722656 56.96875 26.539062 C 56.804688 26.355469 56.558594 26.234375 56.285156 26.234375 C 56.015625 26.234375 55.765625 26.355469 55.601562 26.539062 C 55.433594 26.71875 55.335938 26.964844 55.335938 27.226562 L 55.335938 34.613281 C 55.335938 34.878906 55.433594 35.125 55.601562 35.304688 C 55.769531 35.488281 56.015625 35.609375 56.285156 35.605469 C 56.554688 35.609375 56.804688 35.484375 56.96875 35.304688 C 57.136719 35.121094 57.234375 34.875 57.234375 34.613281 L 56.792969 34.613281 " fill-opacity="1" fill-rule="nonzero"/></g><g clip-path="url(#d6595d45de)"><path fill="#ffffff" d="M 63.074219 34.613281 C 63.074219 34.917969 62.84375 35.164062 62.566406 35.164062 C 62.285156 35.164062 62.054688 34.917969 62.054688 34.613281 L 62.054688 27.226562 C 62.054688 26.921875 62.285156 26.675781 62.566406 26.675781 C 62.84375 26.675781 63.074219 26.921875 63.074219 27.226562 L 63.074219 34.613281 " fill-opacity="1" fill-rule="nonzero"/></g><g clip-path="url(#087b048c46)"><path fill="#c1ff72" d="M 63.074219 34.613281 L 62.628906 34.613281 C 62.628906 34.65625 62.617188 34.683594 62.597656 34.703125 L 62.566406 34.722656 L 62.53125 34.703125 C 62.515625 34.683594 62.5 34.65625 62.5 34.613281 L 62.5 27.226562 C 62.5 27.1875 62.515625 27.15625 62.53125 27.140625 L 62.566406 27.121094 L 62.597656 27.140625 C 62.617188 27.15625 62.628906 27.1875 62.628906 27.226562 L 62.628906 34.613281 L 63.515625 34.613281 L 63.515625 27.226562 C 63.515625 26.964844 63.417969 26.71875 63.25 26.539062 C 63.082031 26.355469 62.835938 26.234375 62.566406 26.234375 C 62.292969 26.234375 62.046875 26.355469 61.878906 26.539062 C 61.710938 26.71875 61.613281 26.964844 61.613281 27.226562 L 61.613281 34.613281 C 61.613281 34.878906 61.710938 35.125 61.878906 35.304688 C 62.046875 35.488281 62.292969 35.609375 62.566406 35.605469 C 62.835938 35.609375 63.082031 35.488281 63.25 35.304688 C 63.417969 35.125 63.515625 34.878906 63.515625 34.613281 L 63.074219 34.613281 " fill-opacity="1" fill-rule="nonzero"/></g><g clip-path="url(#60f999e8ee)"><path fill="#ffffff" d="M 64.660156 34.613281 C 64.660156 34.917969 64.433594 35.164062 64.152344 35.164062 C 63.871094 35.164062 63.644531 34.917969 63.644531 34.613281 L 63.644531 27.226562 C 63.644531 26.921875 63.871094 26.675781 64.152344 26.675781 C 64.433594 26.675781 64.660156 26.921875 64.660156 27.226562 L 64.660156 34.613281 " fill-opacity="1" fill-rule="nonzero"/></g><g clip-path="url(#25b4f2b9b5)"><path fill="#c1ff72" d="M 64.660156 34.613281 L 64.214844 34.613281 C 64.214844 34.65625 64.199219 34.6875 64.183594 34.703125 L 64.152344 34.722656 L 64.117188 34.703125 C 64.101562 34.6875 64.085938 34.65625 64.085938 34.613281 L 64.085938 27.226562 C 64.085938 27.1875 64.101562 27.15625 64.117188 27.136719 L 64.152344 27.121094 L 64.183594 27.136719 C 64.199219 27.15625 64.214844 27.1875 64.214844 27.226562 L 64.214844 34.613281 L 65.101562 34.613281 L 65.101562 27.226562 C 65.101562 26.964844 65.003906 26.722656 64.835938 26.539062 C 64.667969 26.355469 64.425781 26.234375 64.152344 26.234375 C 63.878906 26.234375 63.632812 26.355469 63.464844 26.539062 C 63.300781 26.722656 63.203125 26.964844 63.203125 27.226562 L 63.203125 34.613281 C 63.203125 34.875 63.300781 35.121094 63.46875 35.304688 C 63.632812 35.484375 63.878906 35.609375 64.152344 35.605469 C 64.421875 35.609375 64.667969 35.488281 64.835938 35.304688 C 65.003906 35.121094 65.101562 34.875 65.101562 34.613281 L 64.660156 34.613281 " fill-opacity="1" fill-rule="nonzero"/></g><path fill="#38b6ff" d="M 56.203125 121.960938 C 56.203125 121.960938 60.183594 114.429688 58.261719 108.375 C 56.34375 102.324219 61.722656 112.386719 69.433594 108.695312 " fill-opacity="1" fill-rule="nonzero"/><g clip-path="url(#f1936c8b35)"><path stroke-linecap="butt" transform="matrix(0.75, 0, 0, 0.75, 9.140628, 26.197195)" fill="none" stroke-linejoin="miter" d="M -0.00000361573 -0.00250962 L -0.00000361573 130.138123 L 82.796871 130.138123 L 82.796871 -0.00250962 L -0.00000361573 -0.00250962 " stroke="#7ed957" stroke-width="44" stroke-opacity="1" stroke-miterlimit="4"/></g><g fill="#7ed957" fill-opacity="1"><g transform="translate(75.320317, 101.249996)"><g><path d="M 14.625 -51.171875 L 14.625 -8.265625 L 36.046875 -8.265625 L 36.046875 0 L 5.671875 0 L 5.671875 -51.171875 Z M 14.625 -51.171875 "/></g></g></g><g fill="#7ed957" fill-opacity="1"><g transform="translate(112.978255, 101.249996)"><g><path d="M 8.6875 -41.515625 C 7.238281 -41.515625 6 -42.015625 4.96875 -43.015625 C 3.945312 -44.015625 3.4375 -45.238281 3.4375 -46.6875 C 3.4375 -48.132812 3.945312 -49.347656 4.96875 -50.328125 C 6 -51.304688 7.238281 -51.796875 8.6875 -51.796875 C 10.082031 -51.796875 11.28125 -51.304688 12.28125 -50.328125 C 13.289062 -49.347656 13.796875 -48.132812 13.796875 -46.6875 C 13.796875 -45.238281 13.289062 -44.015625 12.28125 -43.015625 C 11.28125 -42.015625 10.082031 -41.515625 8.6875 -41.515625 Z M 4.40625 0 L 4.40625 -34.578125 L 12.953125 -34.578125 L 12.953125 0 Z M 4.40625 0 "/></g></g></g><g fill="#7ed957" fill-opacity="1"><g transform="translate(130.337304, 101.249996)"><g><path d="M 1.75 -10.5 L 9.875 -10.5 C 9.914062 -9.007812 10.472656 -7.816406 11.546875 -6.921875 C 12.617188 -6.035156 14.132812 -5.59375 16.09375 -5.59375 C 18.101562 -5.59375 19.632812 -5.96875 20.6875 -6.71875 C 21.738281 -7.46875 22.265625 -8.472656 22.265625 -9.734375 C 22.265625 -10.617188 21.984375 -11.375 21.421875 -12 C 20.859375 -12.632812 19.804688 -13.113281 18.265625 -13.4375 L 12.046875 -14.90625 C 8.910156 -15.601562 6.582031 -16.734375 5.0625 -18.296875 C 3.550781 -19.867188 2.796875 -22.03125 2.796875 -24.78125 C 2.796875 -28.1875 4.085938 -30.84375 6.671875 -32.75 C 9.265625 -34.664062 12.546875 -35.625 16.515625 -35.625 C 20.390625 -35.625 23.53125 -34.597656 25.9375 -32.546875 C 28.34375 -30.492188 29.566406 -27.789062 29.609375 -24.4375 L 21.484375 -24.4375 C 21.441406 -25.925781 20.953125 -27.101562 20.015625 -27.96875 C 19.085938 -28.832031 17.804688 -29.265625 16.171875 -29.265625 C 14.492188 -29.265625 13.1875 -28.898438 12.25 -28.171875 C 11.3125 -27.453125 10.84375 -26.4375 10.84375 -25.125 C 10.84375 -23.21875 12.335938 -21.910156 15.328125 -21.203125 L 21.5625 -19.734375 C 24.457031 -19.085938 26.640625 -18.039062 28.109375 -16.59375 C 29.578125 -15.144531 30.3125 -13.09375 30.3125 -10.4375 C 30.3125 -6.9375 28.96875 -4.171875 26.28125 -2.140625 C 23.601562 -0.109375 20.113281 0.90625 15.8125 0.90625 C 11.519531 0.90625 8.101562 -0.140625 5.5625 -2.234375 C 3.019531 -4.335938 1.75 -7.09375 1.75 -10.5 Z M 1.75 -10.5 "/></g></g></g><g fill="#7ed957" fill-opacity="1"><g transform="translate(162.745528, 101.249996)"><g><path d="M 16.171875 0 L 7.625 0 L 7.625 -27.4375 L 0.984375 -27.4375 L 0.984375 -34.578125 L 7.625 -34.578125 L 7.625 -45.359375 L 16.171875 -45.359375 L 16.171875 -34.578125 L 22.890625 -34.578125 L 22.890625 -27.4375 L 16.171875 -27.4375 Z M 16.171875 0 "/></g></g></g><g fill="#7ed957" fill-opacity="1"><g transform="translate(186.544226, 101.249996)"><g><path d="M 14.703125 0.90625 C 11.015625 0.90625 8.117188 -0.0703125 6.015625 -2.03125 C 3.921875 -3.988281 2.875 -6.601562 2.875 -9.875 C 2.875 -13.039062 3.976562 -15.582031 6.1875 -17.5 C 8.40625 -19.414062 11.570312 -20.535156 15.6875 -20.859375 L 26.046875 -21.625 L 26.046875 -22.40625 C 26.046875 -24.738281 25.398438 -26.414062 24.109375 -27.4375 C 22.828125 -28.46875 21.09375 -28.984375 18.90625 -28.984375 C 16.382812 -28.984375 14.445312 -28.476562 13.09375 -27.46875 C 11.738281 -26.46875 11.0625 -25.054688 11.0625 -23.234375 L 3.78125 -23.234375 C 3.78125 -26.972656 5.203125 -29.972656 8.046875 -32.234375 C 10.890625 -34.492188 14.644531 -35.625 19.3125 -35.625 C 23.976562 -35.625 27.65625 -34.382812 30.34375 -31.90625 C 33.03125 -29.4375 34.375 -25.800781 34.375 -21 L 34.375 0 L 26.875 0 L 26.25 -5.109375 C 25.5 -3.335938 24.0625 -1.890625 21.9375 -0.765625 C 19.820312 0.347656 17.410156 0.90625 14.703125 0.90625 Z M 17.5 -5.53125 C 20.113281 -5.53125 22.203125 -6.273438 23.765625 -7.765625 C 25.328125 -9.265625 26.109375 -11.34375 26.109375 -14 L 26.109375 -15.8125 L 18.90625 -15.265625 C 16.238281 -15.023438 14.34375 -14.472656 13.21875 -13.609375 C 12.101562 -12.742188 11.546875 -11.613281 11.546875 -10.21875 C 11.546875 -7.09375 13.53125 -5.53125 17.5 -5.53125 Z M 17.5 -5.53125 "/></g></g></g><g fill="#7ed957" fill-opacity="1"><g transform="translate(224.90213, 101.249996)"><g><path d="M 20.015625 0 L 0.703125 -51.171875 L 10.21875 -51.171875 L 21.421875 -21.703125 C 21.984375 -20.160156 22.519531 -18.582031 23.03125 -16.96875 C 23.539062 -15.363281 24.078125 -13.535156 24.640625 -11.484375 C 25.296875 -13.722656 25.890625 -15.65625 26.421875 -17.28125 C 26.960938 -18.914062 27.46875 -20.390625 27.9375 -21.703125 L 38.984375 -51.171875 L 48.296875 -51.171875 L 29.265625 0 Z M 20.015625 0 "/></g></g></g><g fill="#7ed957" fill-opacity="1"><g transform="translate(273.899468, 101.249996)"><g><path d="M 8.6875 -41.515625 C 7.238281 -41.515625 6 -42.015625 4.96875 -43.015625 C 3.945312 -44.015625 3.4375 -45.238281 3.4375 -46.6875 C 3.4375 -48.132812 3.945312 -49.347656 4.96875 -50.328125 C 6 -51.304688 7.238281 -51.796875 8.6875 -51.796875 C 10.082031 -51.796875 11.28125 -51.304688 12.28125 -50.328125 C 13.289062 -49.347656 13.796875 -48.132812 13.796875 -46.6875 C 13.796875 -45.238281 13.289062 -44.015625 12.28125 -43.015625 C 11.28125 -42.015625 10.082031 -41.515625 8.6875 -41.515625 Z M 4.40625 0 L 4.40625 -34.578125 L 12.953125 -34.578125 L 12.953125 0 Z M 4.40625 0 "/></g></g></g><g fill="#7ed957" fill-opacity="1"><g transform="translate(291.258506, 101.249996)"><g><path d="M 14.203125 0 L 0.484375 -34.578125 L 9.59375 -34.578125 L 15.609375 -18.6875 C 16.359375 -16.632812 17.007812 -14.753906 17.5625 -13.046875 C 18.125 -11.347656 18.5 -10.03125 18.6875 -9.09375 C 18.925781 -10.164062 19.335938 -11.566406 19.921875 -13.296875 C 20.503906 -15.023438 21.164062 -16.820312 21.90625 -18.6875 L 28.203125 -34.578125 L 37.03125 -34.578125 L 22.609375 0 Z M 14.203125 0 "/></g></g></g><g fill="#7ed957" fill-opacity="1"><g transform="translate(328.776448, 101.249996)"><g><path d="M 14.703125 0.90625 C 11.015625 0.90625 8.117188 -0.0703125 6.015625 -2.03125 C 3.921875 -3.988281 2.875 -6.601562 2.875 -9.875 C 2.875 -13.039062 3.976562 -15.582031 6.1875 -17.5 C 8.40625 -19.414062 11.570312 -20.535156 15.6875 -20.859375 L 26.046875 -21.625 L 26.046875 -22.40625 C 26.046875 -24.738281 25.398438 -26.414062 24.109375 -27.4375 C 22.828125 -28.46875 21.09375 -28.984375 18.90625 -28.984375 C 16.382812 -28.984375 14.445312 -28.476562 13.09375 -27.46875 C 11.738281 -26.46875 11.0625 -25.054688 11.0625 -23.234375 L 3.78125 -23.234375 C 3.78125 -26.972656 5.203125 -29.972656 8.046875 -32.234375 C 10.890625 -34.492188 14.644531 -35.625 19.3125 -35.625 C 23.976562 -35.625 27.65625 -34.382812 30.34375 -31.90625 C 33.03125 -29.4375 34.375 -25.800781 34.375 -21 L 34.375 0 L 26.875 0 L 26.25 -5.109375 C 25.5 -3.335938 24.0625 -1.890625 21.9375 -0.765625 C 19.820312 0.347656 17.410156 0.90625 14.703125 0.90625 Z M 17.5 -5.53125 C 20.113281 -5.53125 22.203125 -6.273438 23.765625 -7.765625 C 25.328125 -9.265625 26.109375 -11.34375 26.109375 -14 L 26.109375 -15.8125 L 18.90625 -15.265625 C 16.238281 -15.023438 14.34375 -14.472656 13.21875 -13.609375 C 12.101562 -12.742188 11.546875 -11.613281 11.546875 -10.21875 C 11.546875 -7.09375 13.53125 -5.53125 17.5 -5.53125 Z M 17.5 -5.53125 "/></g></g></g></svg>