<svg xmlns="http://www.w3.org/2000/svg" xmlns:xlink="http://www.w3.org/1999/xlink" width="500" zoomAndPan="magnify" viewBox="0 0 375 374.999991" height="500" preserveAspectRatio="xMidYMid meet" version="1.0"><defs><g/><clipPath id="d00558ec00"><path d="M 38.398438 151 L 87.0625 151 L 87.0625 226.253906 L 38.398438 226.253906 Z M 38.398438 151 " clip-rule="nonzero"/></clipPath><clipPath id="99d7577b8b"><path d="M 38.398438 150 L 87.0625 150 L 87.0625 226.253906 L 38.398438 226.253906 Z M 38.398438 150 " clip-rule="nonzero"/></clipPath><clipPath id="a08c927512"><path d="M 42 148.746094 L 43 148.746094 L 43 156 L 42 156 Z M 42 148.746094 " clip-rule="nonzero"/></clipPath><clipPath id="abd1ead3f0"><path d="M 41 148.746094 L 44 148.746094 L 44 156 L 41 156 Z M 41 148.746094 " clip-rule="nonzero"/></clipPath><clipPath id="0cde9b5eb2"><path d="M 43 148.746094 L 45 148.746094 L 45 156 L 43 156 Z M 43 148.746094 " clip-rule="nonzero"/></clipPath><clipPath id="7678487789"><path d="M 48 148.746094 L 50 148.746094 L 50 156 L 48 156 Z M 48 148.746094 " clip-rule="nonzero"/></clipPath><clipPath id="0b8017939d"><path d="M 49 148.746094 L 51 148.746094 L 51 156 L 49 156 Z M 49 148.746094 " clip-rule="nonzero"/></clipPath><clipPath id="e3ad2a63ec"><path d="M 49 148.746094 L 52 148.746094 L 52 156 L 49 156 Z M 49 148.746094 " clip-rule="nonzero"/></clipPath><clipPath id="cea955379f"><path d="M 54 148.746094 L 56 148.746094 L 56 156 L 54 156 Z M 54 148.746094 " clip-rule="nonzero"/></clipPath><clipPath id="3fa748a630"><path d="M 54 148.746094 L 57 148.746094 L 57 156 L 54 156 Z M 54 148.746094 " clip-rule="nonzero"/></clipPath><clipPath id="dddbb33e95"><path d="M 56 148.746094 L 58 148.746094 L 58 156 L 56 156 Z M 56 148.746094 " clip-rule="nonzero"/></clipPath><clipPath id="58fd2a604d"><path d="M 55 148.746094 L 58 148.746094 L 58 156 L 55 156 Z M 55 148.746094 " clip-rule="nonzero"/></clipPath><clipPath id="25615fc93f"><path d="M 61 148.746094 L 63 148.746094 L 63 156 L 61 156 Z M 61 148.746094 " clip-rule="nonzero"/></clipPath><clipPath id="f4072420b1"><path d="M 62 148.746094 L 64 148.746094 L 64 156 L 62 156 Z M 62 148.746094 " clip-rule="nonzero"/></clipPath><clipPath id="adeb88a6ba"><path d="M 67 148.746094 L 69 148.746094 L 69 156 L 67 156 Z M 67 148.746094 " clip-rule="nonzero"/></clipPath><clipPath id="72a66f913c"><path d="M 69 148.746094 L 70 148.746094 L 70 156 L 69 156 Z M 69 148.746094 " clip-rule="nonzero"/></clipPath><clipPath id="1eafcd25ed"><path d="M 68 148.746094 L 71 148.746094 L 71 156 L 68 156 Z M 68 148.746094 " clip-rule="nonzero"/></clipPath><clipPath id="6365fecd49"><path d="M 74 148.746094 L 75 148.746094 L 75 156 L 74 156 Z M 74 148.746094 " clip-rule="nonzero"/></clipPath><clipPath id="f1134723af"><path d="M 73 148.746094 L 76 148.746094 L 76 156 L 73 156 Z M 73 148.746094 " clip-rule="nonzero"/></clipPath><clipPath id="af8d8b6c17"><path d="M 75 148.746094 L 77 148.746094 L 77 156 L 75 156 Z M 75 148.746094 " clip-rule="nonzero"/></clipPath><clipPath id="9ebb7cc933"><path d="M 80 148.746094 L 82 148.746094 L 82 156 L 80 156 Z M 80 148.746094 " clip-rule="nonzero"/></clipPath><clipPath id="49ee299780"><path d="M 81 148.746094 L 83 148.746094 L 83 156 L 81 156 Z M 81 148.746094 " clip-rule="nonzero"/></clipPath><clipPath id="ba48f3a3e5"><path d="M 37.5 147.84375 L 87.75 147.84375 L 87.75 227.144531 L 37.5 227.144531 Z M 37.5 147.84375 " clip-rule="nonzero"/></clipPath></defs><g clip-path="url(#d00558ec00)"><path fill="#ffffff" d="M 87.226562 222.640625 C 87.226562 224.71875 85.582031 226.402344 83.550781 226.402344 L 41.886719 226.402344 C 39.855469 226.402344 38.210938 224.71875 38.210938 222.640625 L 38.210938 155.3125 C 38.210938 153.234375 39.855469 151.550781 41.886719 151.550781 L 83.550781 151.550781 C 85.582031 151.550781 87.226562 153.234375 87.226562 155.3125 L 87.226562 222.640625 " fill-opacity="1" fill-rule="nonzero"/></g><g clip-path="url(#99d7577b8b)"><path fill="#c1ff72" d="M 87.226562 222.640625 L 86.503906 222.640625 C 86.503906 223.484375 86.171875 224.246094 85.632812 224.796875 C 85.09375 225.347656 84.363281 225.679688 83.550781 225.683594 L 41.886719 225.683594 C 41.074219 225.679688 40.34375 225.347656 39.804688 224.796875 C 39.265625 224.246094 38.929688 223.484375 38.929688 222.640625 L 38.929688 155.3125 C 38.929688 154.464844 39.265625 153.707031 39.804688 153.15625 C 40.34375 152.605469 41.074219 152.269531 41.886719 152.269531 L 83.550781 152.269531 C 84.363281 152.269531 85.09375 152.605469 85.632812 153.15625 C 86.171875 153.707031 86.503906 154.464844 86.503906 155.3125 L 86.503906 222.640625 L 87.945312 222.640625 L 87.945312 155.3125 C 87.945312 154.082031 87.457031 152.960938 86.664062 152.148438 C 85.871094 151.339844 84.765625 150.828125 83.550781 150.828125 L 41.886719 150.828125 C 40.671875 150.828125 39.5625 151.339844 38.773438 152.148438 C 37.980469 152.960938 37.492188 154.082031 37.492188 155.3125 L 37.492188 222.640625 C 37.492188 223.871094 37.980469 224.992188 38.773438 225.800781 C 39.5625 226.613281 40.671875 227.121094 41.886719 227.121094 L 83.550781 227.121094 C 84.765625 227.121094 85.871094 226.613281 86.664062 225.800781 C 87.457031 224.992188 87.945312 223.871094 87.945312 222.640625 L 87.226562 222.640625 " fill-opacity="1" fill-rule="nonzero"/></g><path fill="#ffffff" d="M 45.054688 155.585938 C 45.054688 156.609375 44.226562 157.4375 43.207031 157.4375 C 42.183594 157.4375 41.355469 156.609375 41.355469 155.585938 C 41.355469 154.566406 42.183594 153.738281 43.207031 153.738281 C 44.226562 153.738281 45.054688 154.566406 45.054688 155.585938 " fill-opacity="1" fill-rule="nonzero"/><path fill="#c1ff72" d="M 45.054688 155.585938 L 44.335938 155.585938 C 44.335938 155.902344 44.210938 156.179688 44.003906 156.386719 C 43.796875 156.589844 43.519531 156.714844 43.207031 156.71875 C 42.890625 156.714844 42.613281 156.589844 42.40625 156.386719 C 42.203125 156.179688 42.074219 155.902344 42.074219 155.585938 C 42.074219 155.273438 42.203125 154.996094 42.40625 154.789062 C 42.613281 154.582031 42.890625 154.457031 43.207031 154.457031 C 43.519531 154.457031 43.796875 154.582031 44.003906 154.789062 C 44.210938 154.996094 44.335938 155.273438 44.335938 155.585938 L 45.773438 155.585938 C 45.777344 154.878906 45.488281 154.234375 45.023438 153.769531 C 44.5625 153.304688 43.914062 153.015625 43.207031 153.015625 C 42.5 153.015625 41.851562 153.304688 41.390625 153.769531 C 40.925781 154.230469 40.636719 154.878906 40.636719 155.585938 C 40.636719 156.296875 40.925781 156.941406 41.390625 157.402344 C 41.851562 157.867188 42.5 158.15625 43.207031 158.15625 C 43.914062 158.15625 44.5625 157.867188 45.023438 157.402344 C 45.488281 156.941406 45.777344 156.292969 45.773438 155.585938 L 45.054688 155.585938 " fill-opacity="1" fill-rule="nonzero"/><path fill="#ffffff" d="M 51.449219 155.585938 C 51.449219 156.609375 50.621094 157.4375 49.597656 157.4375 C 48.574219 157.4375 47.75 156.609375 47.75 155.585938 C 47.75 154.566406 48.574219 153.738281 49.597656 153.738281 C 50.621094 153.738281 51.449219 154.566406 51.449219 155.585938 " fill-opacity="1" fill-rule="nonzero"/><path fill="#c1ff72" d="M 51.449219 155.585938 L 50.730469 155.585938 C 50.726562 155.902344 50.601562 156.179688 50.398438 156.386719 C 50.191406 156.589844 49.914062 156.714844 49.597656 156.71875 C 49.285156 156.714844 49.003906 156.589844 48.800781 156.386719 C 48.59375 156.179688 48.46875 155.902344 48.46875 155.585938 C 48.46875 155.273438 48.59375 154.996094 48.800781 154.789062 C 49.003906 154.582031 49.285156 154.457031 49.597656 154.457031 C 49.914062 154.457031 50.191406 154.582031 50.398438 154.789062 C 50.601562 154.996094 50.726562 155.273438 50.730469 155.585938 L 52.167969 155.585938 C 52.167969 154.878906 51.878906 154.234375 51.414062 153.769531 C 50.953125 153.304688 50.304688 153.015625 49.597656 153.015625 C 48.890625 153.015625 48.246094 153.304688 47.78125 153.769531 C 47.316406 154.234375 47.027344 154.878906 47.027344 155.585938 C 47.027344 156.292969 47.316406 156.941406 47.78125 157.402344 C 48.242188 157.867188 48.890625 158.15625 49.597656 158.15625 C 50.304688 158.15625 50.953125 157.867188 51.414062 157.402344 C 51.878906 156.941406 52.167969 156.292969 52.167969 155.585938 L 51.449219 155.585938 " fill-opacity="1" fill-rule="nonzero"/><path fill="#ffffff" d="M 57.839844 155.585938 C 57.839844 156.609375 57.011719 157.4375 55.992188 157.4375 C 54.96875 157.4375 54.140625 156.609375 54.140625 155.585938 C 54.140625 154.566406 54.96875 153.738281 55.992188 153.738281 C 57.011719 153.738281 57.839844 154.566406 57.839844 155.585938 " fill-opacity="1" fill-rule="nonzero"/><path fill="#c1ff72" d="M 57.839844 155.585938 L 57.121094 155.585938 C 57.121094 155.902344 56.996094 156.179688 56.789062 156.386719 C 56.582031 156.589844 56.304688 156.714844 55.992188 156.71875 C 55.675781 156.714844 55.398438 156.589844 55.191406 156.386719 C 54.984375 156.179688 54.859375 155.902344 54.859375 155.585938 C 54.859375 155.273438 54.984375 154.996094 55.191406 154.789062 C 55.398438 154.582031 55.675781 154.457031 55.992188 154.457031 C 56.304688 154.457031 56.582031 154.582031 56.789062 154.789062 C 56.996094 154.996094 57.121094 155.273438 57.121094 155.585938 L 58.558594 155.585938 C 58.5625 154.878906 58.269531 154.230469 57.808594 153.769531 C 57.34375 153.304688 56.699219 153.015625 55.992188 153.015625 C 55.285156 153.015625 54.636719 153.304688 54.171875 153.769531 C 53.707031 154.234375 53.421875 154.878906 53.421875 155.585938 C 53.421875 156.292969 53.710938 156.941406 54.171875 157.402344 C 54.636719 157.867188 55.28125 158.15625 55.992188 158.15625 C 56.699219 158.15625 57.34375 157.867188 57.808594 157.402344 C 58.269531 156.941406 58.5625 156.296875 58.558594 155.585938 L 57.839844 155.585938 " fill-opacity="1" fill-rule="nonzero"/><path fill="#ffffff" d="M 64.234375 155.585938 C 64.234375 156.609375 63.402344 157.4375 62.382812 157.4375 C 61.359375 157.4375 60.53125 156.609375 60.53125 155.585938 C 60.53125 154.566406 61.359375 153.738281 62.382812 153.738281 C 63.402344 153.738281 64.234375 154.566406 64.234375 155.585938 " fill-opacity="1" fill-rule="nonzero"/><path fill="#c1ff72" d="M 64.234375 155.585938 L 63.511719 155.585938 C 63.511719 155.902344 63.386719 156.179688 63.183594 156.386719 C 62.976562 156.589844 62.695312 156.714844 62.382812 156.71875 C 62.066406 156.714844 61.789062 156.589844 61.582031 156.386719 C 61.375 156.179688 61.253906 155.902344 61.25 155.585938 C 61.253906 155.273438 61.375 154.996094 61.582031 154.789062 C 61.789062 154.582031 62.066406 154.457031 62.382812 154.457031 C 62.695312 154.457031 62.976562 154.582031 63.183594 154.789062 C 63.386719 154.996094 63.511719 155.273438 63.511719 155.585938 L 64.953125 155.585938 C 64.953125 154.878906 64.664062 154.230469 64.199219 153.769531 C 63.734375 153.304688 63.089844 153.015625 62.382812 153.015625 C 61.675781 153.015625 61.027344 153.304688 60.5625 153.769531 C 60.101562 154.230469 59.8125 154.878906 59.8125 155.585938 C 59.8125 156.292969 60.101562 156.941406 60.5625 157.402344 C 61.027344 157.867188 61.671875 158.15625 62.382812 158.15625 C 63.089844 158.15625 63.738281 157.867188 64.199219 157.402344 C 64.664062 156.941406 64.953125 156.296875 64.953125 155.585938 L 64.234375 155.585938 " fill-opacity="1" fill-rule="nonzero"/><path fill="#ffffff" d="M 70.625 155.585938 C 70.625 156.609375 69.796875 157.4375 68.773438 157.4375 C 67.753906 157.4375 66.921875 156.609375 66.921875 155.585938 C 66.921875 154.566406 67.753906 153.738281 68.773438 153.738281 C 69.796875 153.738281 70.625 154.566406 70.625 155.585938 " fill-opacity="1" fill-rule="nonzero"/><path fill="#c1ff72" d="M 70.625 155.585938 L 69.90625 155.585938 C 69.902344 155.902344 69.78125 156.179688 69.574219 156.386719 C 69.367188 156.589844 69.089844 156.714844 68.773438 156.71875 C 68.460938 156.714844 68.179688 156.589844 67.972656 156.386719 C 67.769531 156.179688 67.644531 155.902344 67.644531 155.585938 C 67.644531 155.273438 67.769531 154.996094 67.972656 154.789062 C 68.179688 154.582031 68.457031 154.457031 68.773438 154.457031 C 69.089844 154.457031 69.367188 154.582031 69.574219 154.789062 C 69.78125 154.996094 69.902344 155.273438 69.90625 155.585938 L 71.34375 155.585938 C 71.34375 154.878906 71.054688 154.230469 70.589844 153.769531 C 70.128906 153.304688 69.480469 153.015625 68.773438 153.015625 C 68.066406 153.015625 67.417969 153.304688 66.957031 153.769531 C 66.492188 154.230469 66.203125 154.878906 66.203125 155.585938 C 66.203125 156.292969 66.492188 156.941406 66.957031 157.402344 C 67.417969 157.867188 68.066406 158.15625 68.773438 158.15625 C 69.480469 158.15625 70.128906 157.867188 70.589844 157.402344 C 71.054688 156.941406 71.34375 156.292969 71.34375 155.585938 L 70.625 155.585938 " fill-opacity="1" fill-rule="nonzero"/><path fill="#ffffff" d="M 77.015625 155.585938 C 77.015625 156.609375 76.1875 157.4375 75.164062 157.4375 C 74.144531 157.4375 73.316406 156.609375 73.316406 155.585938 C 73.316406 154.566406 74.144531 153.738281 75.164062 153.738281 C 76.1875 153.738281 77.015625 154.566406 77.015625 155.585938 " fill-opacity="1" fill-rule="nonzero"/><path fill="#c1ff72" d="M 77.015625 155.585938 L 76.296875 155.585938 C 76.296875 155.902344 76.171875 156.179688 75.964844 156.386719 C 75.757812 156.589844 75.480469 156.714844 75.164062 156.71875 C 74.851562 156.714844 74.574219 156.589844 74.367188 156.386719 C 74.160156 156.179688 74.035156 155.902344 74.035156 155.585938 C 74.035156 155.273438 74.160156 154.996094 74.367188 154.789062 C 74.574219 154.582031 74.851562 154.457031 75.164062 154.457031 C 75.480469 154.457031 75.757812 154.582031 75.964844 154.789062 C 76.171875 154.996094 76.296875 155.273438 76.296875 155.585938 L 77.734375 155.585938 C 77.734375 154.878906 77.445312 154.230469 76.984375 153.769531 C 76.519531 153.304688 75.871094 153.015625 75.164062 153.015625 C 74.457031 153.015625 73.8125 153.304688 73.347656 153.769531 C 72.882812 154.234375 72.597656 154.878906 72.597656 155.585938 C 72.597656 156.292969 72.882812 156.941406 73.347656 157.402344 C 73.8125 157.867188 74.457031 158.15625 75.164062 158.15625 C 75.871094 158.15625 76.519531 157.867188 76.984375 157.402344 C 77.445312 156.941406 77.734375 156.292969 77.734375 155.585938 L 77.015625 155.585938 " fill-opacity="1" fill-rule="nonzero"/><path fill="#ffffff" d="M 83.40625 155.585938 C 83.40625 156.609375 82.578125 157.4375 81.554688 157.4375 C 80.535156 157.4375 79.707031 156.609375 79.707031 155.585938 C 79.707031 154.566406 80.535156 153.738281 81.554688 153.738281 C 82.578125 153.738281 83.40625 154.566406 83.40625 155.585938 " fill-opacity="1" fill-rule="nonzero"/><path fill="#c1ff72" d="M 83.40625 155.585938 L 82.6875 155.585938 C 82.6875 155.902344 82.5625 156.179688 82.355469 156.386719 C 82.148438 156.589844 81.871094 156.714844 81.554688 156.71875 C 81.242188 156.714844 80.964844 156.589844 80.757812 156.386719 C 80.550781 156.179688 80.425781 155.902344 80.425781 155.585938 C 80.425781 155.273438 80.554688 154.996094 80.757812 154.789062 C 80.964844 154.582031 81.242188 154.457031 81.554688 154.457031 C 81.871094 154.457031 82.148438 154.582031 82.355469 154.789062 C 82.5625 154.996094 82.6875 155.273438 82.6875 155.585938 L 84.128906 155.585938 C 84.128906 154.878906 83.839844 154.230469 83.375 153.769531 C 82.910156 153.304688 82.265625 153.015625 81.554688 153.015625 C 80.851562 153.015625 80.203125 153.304688 79.738281 153.769531 C 79.277344 154.234375 78.988281 154.878906 78.988281 155.585938 C 78.988281 156.292969 79.277344 156.941406 79.738281 157.402344 C 80.203125 157.867188 80.847656 158.15625 81.554688 158.15625 C 82.265625 158.15625 82.910156 157.867188 83.375 157.402344 C 83.839844 156.941406 84.128906 156.292969 84.128906 155.585938 L 83.40625 155.585938 " fill-opacity="1" fill-rule="nonzero"/><g clip-path="url(#a08c927512)"><path fill="#ffffff" d="M 42.9375 154.675781 C 42.9375 154.925781 42.753906 155.125 42.523438 155.125 C 42.296875 155.125 42.113281 154.925781 42.113281 154.675781 L 42.113281 148.675781 C 42.113281 148.425781 42.296875 148.226562 42.523438 148.226562 C 42.753906 148.226562 42.9375 148.425781 42.9375 148.675781 L 42.9375 154.675781 " fill-opacity="1" fill-rule="nonzero"/></g><g clip-path="url(#abd1ead3f0)"><path fill="#c1ff72" d="M 42.9375 154.675781 L 42.578125 154.675781 C 42.578125 154.710938 42.566406 154.734375 42.554688 154.75 L 42.523438 154.765625 L 42.496094 154.75 C 42.484375 154.734375 42.472656 154.710938 42.472656 154.675781 L 42.472656 148.675781 C 42.472656 148.640625 42.484375 148.617188 42.496094 148.601562 L 42.523438 148.585938 L 42.554688 148.601562 C 42.566406 148.617188 42.578125 148.640625 42.578125 148.675781 L 42.578125 154.675781 L 43.300781 154.675781 L 43.300781 148.675781 C 43.300781 148.460938 43.21875 148.261719 43.082031 148.113281 C 42.945312 147.964844 42.746094 147.867188 42.523438 147.867188 C 42.304688 147.867188 42.105469 147.964844 41.96875 148.113281 C 41.832031 148.261719 41.753906 148.460938 41.753906 148.675781 L 41.753906 154.675781 C 41.753906 154.890625 41.832031 155.089844 41.96875 155.238281 C 42.105469 155.386719 42.304688 155.484375 42.523438 155.484375 C 42.746094 155.484375 42.945312 155.386719 43.082031 155.238281 C 43.21875 155.089844 43.300781 154.890625 43.300781 154.675781 L 42.9375 154.675781 " fill-opacity="1" fill-rule="nonzero"/></g><g clip-path="url(#0cde9b5eb2)"><path fill="#ffffff" d="M 44.226562 154.675781 C 44.226562 154.925781 44.042969 155.125 43.816406 155.125 C 43.585938 155.125 43.402344 154.925781 43.402344 154.675781 L 43.402344 148.675781 C 43.402344 148.425781 43.585938 148.226562 43.816406 148.226562 C 44.042969 148.226562 44.226562 148.425781 44.226562 148.675781 L 44.226562 154.675781 " fill-opacity="1" fill-rule="nonzero"/><path fill="#c1ff72" d="M 44.226562 154.675781 L 43.867188 154.675781 C 43.867188 154.710938 43.855469 154.734375 43.84375 154.75 L 43.816406 154.765625 L 43.789062 154.75 C 43.773438 154.734375 43.761719 154.710938 43.761719 154.675781 L 43.761719 148.675781 C 43.761719 148.640625 43.773438 148.617188 43.789062 148.601562 L 43.816406 148.585938 L 43.839844 148.601562 C 43.855469 148.617188 43.867188 148.640625 43.867188 148.675781 L 43.867188 154.675781 L 44.585938 154.675781 L 44.585938 148.675781 C 44.585938 148.460938 44.507812 148.261719 44.371094 148.113281 C 44.238281 147.964844 44.035156 147.867188 43.816406 147.867188 C 43.59375 147.867188 43.394531 147.964844 43.257812 148.113281 C 43.121094 148.261719 43.042969 148.460938 43.042969 148.675781 L 43.042969 154.675781 C 43.042969 154.890625 43.121094 155.089844 43.257812 155.238281 C 43.394531 155.386719 43.597656 155.484375 43.816406 155.484375 C 44.035156 155.484375 44.238281 155.386719 44.371094 155.238281 C 44.507812 155.089844 44.585938 154.890625 44.585938 154.675781 L 44.226562 154.675781 " fill-opacity="1" fill-rule="nonzero"/></g><g clip-path="url(#7678487789)"><path fill="#ffffff" d="M 49.367188 154.675781 C 49.367188 154.925781 49.179688 155.125 48.953125 155.125 C 48.726562 155.125 48.542969 154.925781 48.542969 154.675781 L 48.542969 148.675781 C 48.542969 148.425781 48.726562 148.226562 48.953125 148.226562 C 49.179688 148.226562 49.367188 148.425781 49.367188 148.675781 L 49.367188 154.675781 " fill-opacity="1" fill-rule="nonzero"/><path fill="#c1ff72" d="M 49.367188 154.675781 L 49.007812 154.675781 C 49.007812 154.710938 48.992188 154.734375 48.980469 154.75 L 48.953125 154.765625 L 48.925781 154.75 C 48.914062 154.734375 48.902344 154.710938 48.902344 154.675781 L 48.902344 148.675781 C 48.902344 148.640625 48.914062 148.617188 48.925781 148.601562 L 48.953125 148.585938 L 48.980469 148.601562 C 48.992188 148.617188 49.007812 148.640625 49.007812 148.675781 L 49.007812 154.675781 L 49.726562 154.675781 L 49.726562 148.675781 C 49.726562 148.460938 49.644531 148.261719 49.511719 148.113281 C 49.375 147.964844 49.175781 147.867188 48.953125 147.867188 C 48.734375 147.867188 48.53125 147.964844 48.398438 148.113281 C 48.261719 148.261719 48.179688 148.460938 48.179688 148.675781 L 48.179688 154.675781 C 48.179688 154.890625 48.261719 155.089844 48.398438 155.238281 C 48.53125 155.386719 48.734375 155.484375 48.953125 155.484375 C 49.175781 155.484375 49.375 155.386719 49.507812 155.238281 C 49.644531 155.089844 49.726562 154.890625 49.726562 154.675781 L 49.367188 154.675781 " fill-opacity="1" fill-rule="nonzero"/></g><g clip-path="url(#0b8017939d)"><path fill="#ffffff" d="M 50.65625 154.675781 C 50.65625 154.925781 50.46875 155.125 50.242188 155.125 C 50.015625 155.125 49.832031 154.925781 49.832031 154.675781 L 49.832031 148.675781 C 49.832031 148.425781 50.015625 148.226562 50.242188 148.226562 C 50.46875 148.226562 50.65625 148.425781 50.65625 148.675781 L 50.65625 154.675781 " fill-opacity="1" fill-rule="nonzero"/></g><g clip-path="url(#e3ad2a63ec)"><path fill="#c1ff72" d="M 50.65625 154.675781 L 50.296875 154.675781 C 50.296875 154.710938 50.285156 154.734375 50.269531 154.75 L 50.242188 154.765625 L 50.214844 154.75 C 50.203125 154.734375 50.191406 154.710938 50.191406 154.675781 L 50.191406 148.675781 C 50.191406 148.640625 50.203125 148.617188 50.214844 148.601562 L 50.242188 148.585938 L 50.269531 148.601562 C 50.285156 148.617188 50.296875 148.640625 50.296875 148.675781 L 50.296875 154.675781 L 51.015625 154.675781 L 51.015625 148.675781 C 51.015625 148.460938 50.933594 148.261719 50.800781 148.113281 C 50.664062 147.964844 50.464844 147.867188 50.242188 147.867188 C 50.023438 147.867188 49.824219 147.964844 49.6875 148.113281 C 49.550781 148.261719 49.46875 148.460938 49.46875 148.675781 L 49.46875 154.675781 C 49.46875 154.890625 49.550781 155.089844 49.6875 155.238281 C 49.824219 155.386719 50.023438 155.484375 50.242188 155.484375 C 50.464844 155.484375 50.664062 155.386719 50.800781 155.238281 C 50.933594 155.089844 51.015625 154.890625 51.015625 154.675781 L 50.65625 154.675781 " fill-opacity="1" fill-rule="nonzero"/></g><g clip-path="url(#cea955379f)"><path fill="#ffffff" d="M 55.757812 154.675781 C 55.757812 154.925781 55.574219 155.125 55.347656 155.125 C 55.117188 155.125 54.933594 154.925781 54.933594 154.675781 L 54.933594 148.675781 C 54.933594 148.425781 55.117188 148.226562 55.347656 148.226562 C 55.574219 148.226562 55.757812 148.425781 55.757812 148.675781 L 55.757812 154.675781 " fill-opacity="1" fill-rule="nonzero"/></g><g clip-path="url(#3fa748a630)"><path fill="#c1ff72" d="M 55.757812 154.675781 L 55.398438 154.675781 C 55.398438 154.710938 55.382812 154.734375 55.371094 154.75 L 55.347656 154.765625 L 55.316406 154.75 C 55.304688 154.734375 55.292969 154.710938 55.292969 154.675781 L 55.292969 148.675781 C 55.292969 148.640625 55.304688 148.617188 55.316406 148.601562 L 55.347656 148.585938 L 55.371094 148.601562 C 55.382812 148.617188 55.398438 148.640625 55.398438 148.675781 L 55.398438 154.675781 L 56.117188 154.675781 L 56.117188 148.675781 C 56.117188 148.460938 56.039062 148.261719 55.902344 148.113281 C 55.765625 147.964844 55.566406 147.867188 55.347656 147.867188 C 55.125 147.867188 54.925781 147.964844 54.789062 148.113281 C 54.652344 148.261719 54.574219 148.460938 54.574219 148.675781 L 54.574219 154.675781 C 54.574219 154.890625 54.652344 155.089844 54.789062 155.238281 C 54.925781 155.386719 55.125 155.484375 55.347656 155.484375 C 55.566406 155.484375 55.765625 155.386719 55.902344 155.238281 C 56.039062 155.089844 56.117188 154.890625 56.117188 154.675781 L 55.757812 154.675781 " fill-opacity="1" fill-rule="nonzero"/></g><g clip-path="url(#dddbb33e95)"><path fill="#ffffff" d="M 57.046875 154.675781 C 57.046875 154.925781 56.863281 155.125 56.636719 155.125 C 56.40625 155.125 56.222656 154.925781 56.222656 154.675781 L 56.222656 148.675781 C 56.222656 148.425781 56.40625 148.226562 56.636719 148.226562 C 56.863281 148.226562 57.046875 148.425781 57.046875 148.675781 L 57.046875 154.675781 " fill-opacity="1" fill-rule="nonzero"/></g><g clip-path="url(#58fd2a604d)"><path fill="#c1ff72" d="M 57.046875 154.675781 L 56.6875 154.675781 C 56.6875 154.710938 56.675781 154.734375 56.664062 154.75 L 56.636719 154.765625 L 56.609375 154.75 C 56.59375 154.734375 56.582031 154.710938 56.582031 154.675781 L 56.582031 148.675781 C 56.582031 148.640625 56.59375 148.617188 56.609375 148.601562 L 56.636719 148.585938 L 56.660156 148.601562 C 56.675781 148.617188 56.6875 148.640625 56.6875 148.675781 L 56.6875 154.675781 L 57.40625 154.675781 L 57.40625 148.675781 C 57.40625 148.460938 57.328125 148.261719 57.191406 148.113281 C 57.054688 147.964844 56.855469 147.867188 56.636719 147.867188 C 56.414062 147.867188 56.214844 147.964844 56.078125 148.113281 C 55.941406 148.261719 55.863281 148.460938 55.863281 148.675781 L 55.863281 154.675781 C 55.863281 154.890625 55.941406 155.089844 56.078125 155.238281 C 56.214844 155.386719 56.414062 155.484375 56.636719 155.484375 C 56.855469 155.484375 57.054688 155.386719 57.191406 155.238281 C 57.328125 155.089844 57.40625 154.890625 57.40625 154.675781 L 57.046875 154.675781 " fill-opacity="1" fill-rule="nonzero"/></g><g clip-path="url(#25615fc93f)"><path fill="#ffffff" d="M 62.28125 154.675781 C 62.28125 154.925781 62.097656 155.125 61.871094 155.125 C 61.640625 155.125 61.457031 154.925781 61.457031 154.675781 L 61.457031 148.675781 C 61.457031 148.425781 61.640625 148.226562 61.871094 148.226562 C 62.097656 148.226562 62.28125 148.425781 62.28125 148.675781 L 62.28125 154.675781 " fill-opacity="1" fill-rule="nonzero"/><path fill="#c1ff72" d="M 62.28125 154.675781 L 61.921875 154.675781 C 61.921875 154.710938 61.910156 154.734375 61.898438 154.75 L 61.871094 154.765625 L 61.84375 154.75 C 61.832031 154.734375 61.816406 154.710938 61.816406 154.675781 L 61.816406 148.675781 C 61.816406 148.640625 61.832031 148.617188 61.84375 148.601562 L 61.871094 148.585938 L 61.898438 148.601562 C 61.910156 148.617188 61.921875 148.640625 61.921875 148.675781 L 61.921875 154.675781 L 62.640625 154.675781 L 62.640625 148.675781 C 62.640625 148.460938 62.5625 148.261719 62.425781 148.113281 C 62.292969 147.964844 62.089844 147.867188 61.871094 147.867188 C 61.648438 147.867188 61.449219 147.964844 61.3125 148.113281 C 61.175781 148.261719 61.097656 148.460938 61.097656 148.675781 L 61.097656 154.675781 C 61.097656 154.890625 61.175781 155.089844 61.3125 155.238281 C 61.449219 155.386719 61.648438 155.484375 61.871094 155.484375 C 62.089844 155.484375 62.289062 155.386719 62.425781 155.238281 C 62.5625 155.089844 62.640625 154.890625 62.640625 154.675781 L 62.28125 154.675781 " fill-opacity="1" fill-rule="nonzero"/></g><g clip-path="url(#f4072420b1)"><path fill="#ffffff" d="M 63.570312 154.675781 C 63.570312 154.925781 63.386719 155.125 63.160156 155.125 C 62.929688 155.125 62.746094 154.925781 62.746094 154.675781 L 62.746094 148.675781 C 62.746094 148.425781 62.929688 148.226562 63.160156 148.226562 C 63.386719 148.226562 63.570312 148.425781 63.570312 148.675781 L 63.570312 154.675781 " fill-opacity="1" fill-rule="nonzero"/><path fill="#c1ff72" d="M 63.570312 154.675781 L 63.210938 154.675781 C 63.210938 154.710938 63.199219 154.734375 63.1875 154.75 L 63.160156 154.765625 L 63.132812 154.75 C 63.117188 154.734375 63.105469 154.710938 63.105469 154.675781 L 63.105469 148.675781 C 63.105469 148.640625 63.117188 148.617188 63.132812 148.601562 L 63.160156 148.585938 L 63.1875 148.601562 C 63.199219 148.617188 63.210938 148.640625 63.210938 148.675781 L 63.210938 154.675781 L 63.933594 154.675781 L 63.933594 148.675781 C 63.933594 148.460938 63.851562 148.261719 63.714844 148.113281 C 63.582031 147.964844 63.378906 147.867188 63.160156 147.867188 C 62.9375 147.867188 62.738281 147.964844 62.605469 148.113281 C 62.464844 148.261719 62.386719 148.460938 62.386719 148.675781 L 62.386719 154.675781 C 62.386719 154.890625 62.464844 155.089844 62.605469 155.238281 C 62.738281 155.386719 62.9375 155.484375 63.160156 155.484375 C 63.378906 155.484375 63.578125 155.386719 63.714844 155.238281 C 63.851562 155.089844 63.933594 154.890625 63.933594 154.675781 L 63.570312 154.675781 " fill-opacity="1" fill-rule="nonzero"/></g><g clip-path="url(#adeb88a6ba)"><path fill="#ffffff" d="M 68.542969 154.675781 C 68.542969 154.925781 68.359375 155.125 68.128906 155.125 C 67.902344 155.125 67.71875 154.925781 67.71875 154.675781 L 67.71875 148.675781 C 67.71875 148.425781 67.902344 148.226562 68.128906 148.226562 C 68.359375 148.226562 68.542969 148.425781 68.542969 148.675781 L 68.542969 154.675781 " fill-opacity="1" fill-rule="nonzero"/><path fill="#c1ff72" d="M 68.542969 154.675781 L 68.183594 154.675781 C 68.183594 154.710938 68.167969 154.734375 68.15625 154.75 L 68.128906 154.765625 L 68.101562 154.75 C 68.089844 154.734375 68.078125 154.710938 68.078125 154.675781 L 68.078125 148.675781 C 68.078125 148.640625 68.089844 148.617188 68.101562 148.601562 L 68.128906 148.585938 L 68.15625 148.601562 C 68.167969 148.617188 68.183594 148.640625 68.183594 148.675781 L 68.183594 154.675781 L 68.902344 154.675781 L 68.902344 148.675781 C 68.902344 148.460938 68.820312 148.261719 68.6875 148.113281 C 68.550781 147.964844 68.347656 147.867188 68.128906 147.867188 C 67.90625 147.867188 67.707031 147.964844 67.570312 148.113281 C 67.4375 148.261719 67.359375 148.460938 67.359375 148.675781 L 67.355469 154.675781 C 67.355469 154.890625 67.4375 155.089844 67.574219 155.238281 C 67.707031 155.386719 67.910156 155.484375 68.128906 155.484375 C 68.347656 155.484375 68.546875 155.386719 68.683594 155.238281 C 68.820312 155.089844 68.902344 154.890625 68.902344 154.675781 L 68.542969 154.675781 " fill-opacity="1" fill-rule="nonzero"/></g><g clip-path="url(#72a66f913c)"><path fill="#ffffff" d="M 69.832031 154.675781 C 69.832031 154.925781 69.644531 155.125 69.417969 155.125 C 69.191406 155.125 69.007812 154.925781 69.007812 154.675781 L 69.007812 148.675781 C 69.007812 148.425781 69.191406 148.226562 69.417969 148.226562 C 69.644531 148.226562 69.832031 148.425781 69.832031 148.675781 L 69.832031 154.675781 " fill-opacity="1" fill-rule="nonzero"/></g><g clip-path="url(#1eafcd25ed)"><path fill="#c1ff72" d="M 69.832031 154.675781 L 69.472656 154.675781 C 69.472656 154.710938 69.457031 154.734375 69.445312 154.75 L 69.417969 154.765625 L 69.390625 154.75 C 69.378906 154.734375 69.367188 154.710938 69.363281 154.675781 L 69.367188 148.675781 C 69.363281 148.640625 69.378906 148.617188 69.390625 148.601562 L 69.417969 148.585938 L 69.445312 148.601562 C 69.457031 148.617188 69.472656 148.640625 69.472656 148.675781 L 69.472656 154.675781 L 70.191406 154.675781 L 70.191406 148.675781 C 70.191406 148.460938 70.109375 148.261719 69.972656 148.113281 C 69.839844 147.964844 69.640625 147.867188 69.417969 147.867188 C 69.199219 147.867188 68.996094 147.964844 68.863281 148.113281 C 68.726562 148.261719 68.644531 148.460938 68.644531 148.675781 L 68.644531 154.675781 C 68.644531 154.890625 68.726562 155.089844 68.863281 155.238281 C 69 155.386719 69.199219 155.484375 69.417969 155.484375 C 69.640625 155.484375 69.839844 155.386719 69.972656 155.238281 C 70.109375 155.089844 70.191406 154.890625 70.191406 154.675781 L 69.832031 154.675781 " fill-opacity="1" fill-rule="nonzero"/></g><g clip-path="url(#6365fecd49)"><path fill="#ffffff" d="M 74.933594 154.675781 C 74.933594 154.925781 74.75 155.125 74.519531 155.125 C 74.292969 155.125 74.109375 154.925781 74.109375 154.675781 L 74.109375 148.675781 C 74.109375 148.425781 74.292969 148.226562 74.519531 148.226562 C 74.75 148.226562 74.933594 148.425781 74.933594 148.675781 L 74.933594 154.675781 " fill-opacity="1" fill-rule="nonzero"/></g><g clip-path="url(#f1134723af)"><path fill="#c1ff72" d="M 74.933594 154.675781 L 74.574219 154.675781 C 74.574219 154.710938 74.5625 154.734375 74.546875 154.75 L 74.519531 154.765625 L 74.492188 154.75 C 74.480469 154.734375 74.46875 154.710938 74.46875 154.675781 L 74.46875 148.675781 C 74.46875 148.640625 74.480469 148.617188 74.492188 148.601562 L 74.519531 148.585938 L 74.546875 148.601562 C 74.5625 148.617188 74.574219 148.640625 74.574219 148.675781 L 74.574219 154.675781 L 75.292969 154.675781 L 75.292969 148.675781 C 75.292969 148.460938 75.214844 148.261719 75.078125 148.113281 C 74.941406 147.964844 74.742188 147.867188 74.519531 147.867188 C 74.300781 147.867188 74.101562 147.964844 73.964844 148.113281 C 73.828125 148.261719 73.746094 148.460938 73.746094 148.675781 L 73.746094 154.675781 C 73.746094 154.890625 73.828125 155.089844 73.964844 155.238281 C 74.101562 155.386719 74.300781 155.484375 74.519531 155.484375 C 74.742188 155.484375 74.941406 155.386719 75.078125 155.238281 C 75.214844 155.089844 75.292969 154.890625 75.292969 154.675781 L 74.933594 154.675781 " fill-opacity="1" fill-rule="nonzero"/></g><g clip-path="url(#af8d8b6c17)"><path fill="#ffffff" d="M 76.222656 154.675781 C 76.222656 154.925781 76.039062 155.125 75.808594 155.125 C 75.582031 155.125 75.398438 154.925781 75.398438 154.675781 L 75.398438 148.675781 C 75.398438 148.425781 75.582031 148.226562 75.808594 148.226562 C 76.039062 148.226562 76.222656 148.425781 76.222656 148.675781 L 76.222656 154.675781 " fill-opacity="1" fill-rule="nonzero"/><path fill="#c1ff72" d="M 76.222656 154.675781 L 75.863281 154.675781 C 75.863281 154.710938 75.847656 154.734375 75.835938 154.75 L 75.808594 154.765625 L 75.78125 154.75 C 75.769531 154.734375 75.757812 154.710938 75.757812 154.675781 L 75.757812 148.675781 C 75.757812 148.640625 75.769531 148.617188 75.785156 148.601562 L 75.808594 148.585938 L 75.835938 148.601562 C 75.847656 148.617188 75.863281 148.640625 75.863281 148.675781 L 75.863281 154.675781 L 76.582031 154.675781 L 76.582031 148.675781 C 76.582031 148.460938 76.503906 148.261719 76.367188 148.113281 C 76.230469 147.964844 76.03125 147.867188 75.808594 147.867188 C 75.589844 147.867188 75.390625 147.964844 75.253906 148.113281 C 75.117188 148.261719 75.039062 148.460938 75.039062 148.675781 L 75.039062 154.675781 C 75.039062 154.890625 75.117188 155.089844 75.253906 155.238281 C 75.390625 155.386719 75.589844 155.484375 75.808594 155.484375 C 76.03125 155.484375 76.230469 155.386719 76.367188 155.238281 C 76.503906 155.089844 76.582031 154.890625 76.582031 154.675781 L 76.222656 154.675781 " fill-opacity="1" fill-rule="nonzero"/></g><g clip-path="url(#9ebb7cc933)"><path fill="#ffffff" d="M 81.324219 154.675781 C 81.324219 154.925781 81.140625 155.125 80.914062 155.125 C 80.683594 155.125 80.5 154.925781 80.5 154.675781 L 80.5 148.675781 C 80.5 148.425781 80.683594 148.226562 80.914062 148.226562 C 81.140625 148.226562 81.324219 148.425781 81.324219 148.675781 L 81.324219 154.675781 " fill-opacity="1" fill-rule="nonzero"/><path fill="#c1ff72" d="M 81.324219 154.675781 L 80.964844 154.675781 C 80.964844 154.710938 80.953125 154.734375 80.941406 154.75 L 80.914062 154.765625 L 80.882812 154.75 C 80.871094 154.734375 80.859375 154.710938 80.859375 154.675781 L 80.859375 148.675781 C 80.859375 148.640625 80.871094 148.617188 80.882812 148.601562 L 80.914062 148.585938 L 80.941406 148.601562 C 80.953125 148.617188 80.964844 148.640625 80.964844 148.675781 L 80.964844 154.675781 L 81.6875 154.675781 L 81.6875 148.675781 C 81.6875 148.460938 81.605469 148.261719 81.46875 148.113281 C 81.332031 147.964844 81.132812 147.867188 80.914062 147.867188 C 80.691406 147.867188 80.492188 147.964844 80.355469 148.113281 C 80.21875 148.261719 80.140625 148.460938 80.140625 148.675781 L 80.140625 154.675781 C 80.140625 154.890625 80.21875 155.089844 80.355469 155.238281 C 80.492188 155.386719 80.691406 155.484375 80.914062 155.484375 C 81.132812 155.484375 81.332031 155.386719 81.46875 155.238281 C 81.605469 155.089844 81.6875 154.890625 81.6875 154.675781 L 81.324219 154.675781 " fill-opacity="1" fill-rule="nonzero"/></g><g clip-path="url(#49ee299780)"><path fill="#ffffff" d="M 82.613281 154.675781 C 82.613281 154.925781 82.429688 155.125 82.203125 155.125 C 81.976562 155.125 81.789062 154.925781 81.789062 154.675781 L 81.789062 148.675781 C 81.789062 148.425781 81.976562 148.226562 82.203125 148.226562 C 82.429688 148.226562 82.613281 148.425781 82.613281 148.675781 L 82.613281 154.675781 " fill-opacity="1" fill-rule="nonzero"/><path fill="#c1ff72" d="M 82.613281 154.675781 L 82.253906 154.675781 C 82.253906 154.710938 82.242188 154.734375 82.230469 154.75 L 82.203125 154.765625 L 82.175781 154.75 C 82.164062 154.734375 82.148438 154.710938 82.148438 154.675781 L 82.148438 148.675781 C 82.148438 148.640625 82.164062 148.617188 82.175781 148.601562 L 82.203125 148.585938 L 82.230469 148.601562 C 82.242188 148.617188 82.253906 148.640625 82.253906 148.675781 L 82.253906 154.675781 L 82.976562 154.675781 L 82.976562 148.675781 C 82.976562 148.460938 82.894531 148.261719 82.757812 148.113281 C 82.625 147.964844 82.421875 147.867188 82.203125 147.867188 C 81.980469 147.867188 81.78125 147.964844 81.644531 148.113281 C 81.507812 148.261719 81.429688 148.460938 81.429688 148.675781 L 81.429688 154.675781 C 81.429688 154.890625 81.507812 155.089844 81.648438 155.238281 C 81.78125 155.386719 81.980469 155.484375 82.203125 155.484375 C 82.421875 155.484375 82.625 155.386719 82.757812 155.238281 C 82.894531 155.089844 82.976562 154.890625 82.976562 154.675781 L 82.613281 154.675781 " fill-opacity="1" fill-rule="nonzero"/></g><path fill="#38b6ff" d="M 75.742188 225.652344 C 75.742188 225.652344 78.976562 219.535156 77.417969 214.617188 C 75.859375 209.699219 80.226562 217.875 86.496094 214.878906 " fill-opacity="1" fill-rule="nonzero"/><g clip-path="url(#ba48f3a3e5)"><path stroke-linecap="butt" transform="matrix(0.75, 0, 0, 0.75, 37.500002, 147.844209)" fill="none" stroke-linejoin="miter" d="M -0.00000271667 -0.000612655 L -0.00000271667 105.733769 L 67.281252 105.733769 L 67.281252 -0.000612655 L -0.00000271667 -0.000612655 " stroke="#7ed957" stroke-width="44" stroke-opacity="1" stroke-miterlimit="4"/></g><g fill="#7ed957" fill-opacity="1"><g transform="translate(97.559632, 209.999986)"><g><path d="M 12.578125 -44.015625 L 12.578125 -7.109375 L 31.015625 -7.109375 L 31.015625 0 L 4.875 0 L 4.875 -44.015625 Z M 12.578125 -44.015625 "/></g></g></g><g fill="#7ed957" fill-opacity="1"><g transform="translate(129.959467, 209.999986)"><g><path d="M 7.46875 -35.703125 C 6.21875 -35.703125 5.148438 -36.132812 4.265625 -37 C 3.390625 -37.863281 2.953125 -38.921875 2.953125 -40.171875 C 2.953125 -41.410156 3.390625 -42.453125 4.265625 -43.296875 C 5.148438 -44.140625 6.21875 -44.5625 7.46875 -44.5625 C 8.675781 -44.5625 9.707031 -44.140625 10.5625 -43.296875 C 11.425781 -42.453125 11.859375 -41.410156 11.859375 -40.171875 C 11.859375 -38.921875 11.425781 -37.863281 10.5625 -37 C 9.707031 -36.132812 8.675781 -35.703125 7.46875 -35.703125 Z M 3.796875 0 L 3.796875 -29.75 L 11.140625 -29.75 L 11.140625 0 Z M 3.796875 0 "/></g></g></g><g fill="#7ed957" fill-opacity="1"><g transform="translate(144.894704, 209.999986)"><g><path d="M 1.5 -9.03125 L 8.484375 -9.03125 C 8.523438 -7.75 9.007812 -6.722656 9.9375 -5.953125 C 10.863281 -5.191406 12.164062 -4.8125 13.84375 -4.8125 C 15.570312 -4.8125 16.890625 -5.132812 17.796875 -5.78125 C 18.703125 -6.425781 19.15625 -7.289062 19.15625 -8.375 C 19.15625 -9.132812 18.910156 -9.785156 18.421875 -10.328125 C 17.941406 -10.867188 17.039062 -11.28125 15.71875 -11.5625 L 10.359375 -12.828125 C 7.671875 -13.429688 5.671875 -14.40625 4.359375 -15.75 C 3.054688 -17.09375 2.40625 -18.945312 2.40625 -21.3125 C 2.40625 -24.25 3.519531 -26.539062 5.75 -28.1875 C 7.976562 -29.832031 10.800781 -30.65625 14.21875 -30.65625 C 17.539062 -30.65625 20.234375 -29.769531 22.296875 -28 C 24.367188 -26.238281 25.425781 -23.910156 25.46875 -21.015625 L 18.484375 -21.015625 C 18.441406 -22.296875 18.019531 -23.304688 17.21875 -24.046875 C 16.414062 -24.796875 15.3125 -25.171875 13.90625 -25.171875 C 12.46875 -25.171875 11.34375 -24.859375 10.53125 -24.234375 C 9.726562 -23.609375 9.328125 -22.738281 9.328125 -21.625 C 9.328125 -19.976562 10.613281 -18.851562 13.1875 -18.25 L 18.546875 -16.984375 C 21.035156 -16.421875 22.910156 -15.515625 24.171875 -14.265625 C 25.441406 -13.023438 26.078125 -11.257812 26.078125 -8.96875 C 26.078125 -5.957031 24.921875 -3.578125 22.609375 -1.828125 C 20.304688 -0.0859375 17.304688 0.78125 13.609375 0.78125 C 9.910156 0.78125 6.96875 -0.117188 4.78125 -1.921875 C 2.59375 -3.734375 1.5 -6.101562 1.5 -9.03125 Z M 1.5 -9.03125 "/></g></g></g><g fill="#7ed957" fill-opacity="1"><g transform="translate(172.777831, 209.999986)"><g><path d="M 13.90625 0 L 6.5625 0 L 6.5625 -23.609375 L 0.84375 -23.609375 L 0.84375 -29.75 L 6.5625 -29.75 L 6.5625 -39.015625 L 13.90625 -39.015625 L 13.90625 -29.75 L 19.6875 -29.75 L 19.6875 -23.609375 L 13.90625 -23.609375 Z M 13.90625 0 "/></g></g></g><g fill="#7ed957" fill-opacity="1"><g transform="translate(193.253565, 209.999986)"><g><path d="M 12.640625 0.78125 C 9.472656 0.78125 6.984375 -0.0625 5.171875 -1.75 C 3.367188 -3.4375 2.46875 -5.679688 2.46875 -8.484375 C 2.46875 -11.210938 3.421875 -13.398438 5.328125 -15.046875 C 7.234375 -16.703125 9.953125 -17.664062 13.484375 -17.9375 L 22.40625 -18.609375 L 22.40625 -19.265625 C 22.40625 -21.273438 21.851562 -22.722656 20.75 -23.609375 C 19.644531 -24.492188 18.148438 -24.9375 16.265625 -24.9375 C 14.085938 -24.9375 12.414062 -24.503906 11.25 -23.640625 C 10.09375 -22.773438 9.515625 -21.5625 9.515625 -20 L 3.25 -20 C 3.25 -23.207031 4.472656 -25.785156 6.921875 -27.734375 C 9.367188 -29.679688 12.601562 -30.65625 16.625 -30.65625 C 20.632812 -30.65625 23.789062 -29.585938 26.09375 -27.453125 C 28.40625 -25.328125 29.5625 -22.195312 29.5625 -18.0625 L 29.5625 0 L 23.125 0 L 22.578125 -4.390625 C 21.941406 -2.867188 20.707031 -1.625 18.875 -0.65625 C 17.050781 0.300781 14.972656 0.78125 12.640625 0.78125 Z M 15.0625 -4.75 C 17.300781 -4.75 19.09375 -5.390625 20.4375 -6.671875 C 21.789062 -7.960938 22.46875 -9.753906 22.46875 -12.046875 L 22.46875 -13.609375 L 16.265625 -13.125 C 13.972656 -12.925781 12.34375 -12.453125 11.375 -11.703125 C 10.414062 -10.960938 9.9375 -9.992188 9.9375 -8.796875 C 9.9375 -6.097656 11.644531 -4.75 15.0625 -4.75 Z M 15.0625 -4.75 "/></g></g></g><g fill="#7ed957" fill-opacity="1"><g transform="translate(226.255623, 209.999986)"><g><path d="M 17.21875 0 L 0.609375 -44.015625 L 8.796875 -44.015625 L 18.421875 -18.671875 C 18.910156 -17.347656 19.375 -15.992188 19.8125 -14.609375 C 20.25 -13.222656 20.710938 -11.644531 21.203125 -9.875 C 21.765625 -11.800781 22.273438 -13.46875 22.734375 -14.875 C 23.191406 -16.28125 23.625 -17.546875 24.03125 -18.671875 L 33.546875 -44.015625 L 41.546875 -44.015625 L 25.171875 0 Z M 17.21875 0 "/></g></g></g><g fill="#7ed957" fill-opacity="1"><g transform="translate(268.411546, 209.999986)"><g><path d="M 7.46875 -35.703125 C 6.21875 -35.703125 5.148438 -36.132812 4.265625 -37 C 3.390625 -37.863281 2.953125 -38.921875 2.953125 -40.171875 C 2.953125 -41.410156 3.390625 -42.453125 4.265625 -43.296875 C 5.148438 -44.140625 6.21875 -44.5625 7.46875 -44.5625 C 8.675781 -44.5625 9.707031 -44.140625 10.5625 -43.296875 C 11.425781 -42.453125 11.859375 -41.410156 11.859375 -40.171875 C 11.859375 -38.921875 11.425781 -37.863281 10.5625 -37 C 9.707031 -36.132812 8.675781 -35.703125 7.46875 -35.703125 Z M 3.796875 0 L 3.796875 -29.75 L 11.140625 -29.75 L 11.140625 0 Z M 3.796875 0 "/></g></g></g><g fill="#7ed957" fill-opacity="1"><g transform="translate(283.346783, 209.999986)"><g><path d="M 12.21875 0 L 0.421875 -29.75 L 8.25 -29.75 L 13.421875 -16.078125 C 14.066406 -14.304688 14.628906 -12.6875 15.109375 -11.21875 C 15.597656 -9.757812 15.921875 -8.628906 16.078125 -7.828125 C 16.273438 -8.753906 16.625 -9.957031 17.125 -11.4375 C 17.632812 -12.925781 18.207031 -14.472656 18.84375 -16.078125 L 24.265625 -29.75 L 31.859375 -29.75 L 19.453125 0 Z M 12.21875 0 "/></g></g></g><g fill="#7ed957" fill-opacity="1"><g transform="translate(315.62617, 209.999986)"><g><path d="M 12.640625 0.78125 C 9.472656 0.78125 6.984375 -0.0625 5.171875 -1.75 C 3.367188 -3.4375 2.46875 -5.679688 2.46875 -8.484375 C 2.46875 -11.210938 3.421875 -13.398438 5.328125 -15.046875 C 7.234375 -16.703125 9.953125 -17.664062 13.484375 -17.9375 L 22.40625 -18.609375 L 22.40625 -19.265625 C 22.40625 -21.273438 21.851562 -22.722656 20.75 -23.609375 C 19.644531 -24.492188 18.148438 -24.9375 16.265625 -24.9375 C 14.085938 -24.9375 12.414062 -24.503906 11.25 -23.640625 C 10.09375 -22.773438 9.515625 -21.5625 9.515625 -20 L 3.25 -20 C 3.25 -23.207031 4.472656 -25.785156 6.921875 -27.734375 C 9.367188 -29.679688 12.601562 -30.65625 16.625 -30.65625 C 20.632812 -30.65625 23.789062 -29.585938 26.09375 -27.453125 C 28.40625 -25.328125 29.5625 -22.195312 29.5625 -18.0625 L 29.5625 0 L 23.125 0 L 22.578125 -4.390625 C 21.941406 -2.867188 20.707031 -1.625 18.875 -0.65625 C 17.050781 0.300781 14.972656 0.78125 12.640625 0.78125 Z M 15.0625 -4.75 C 17.300781 -4.75 19.09375 -5.390625 20.4375 -6.671875 C 21.789062 -7.960938 22.46875 -9.753906 22.46875 -12.046875 L 22.46875 -13.609375 L 16.265625 -13.125 C 13.972656 -12.925781 12.34375 -12.453125 11.375 -11.703125 C 10.414062 -10.960938 9.9375 -9.992188 9.9375 -8.796875 C 9.9375 -6.097656 11.644531 -4.75 15.0625 -4.75 Z M 15.0625 -4.75 "/></g></g></g></svg>